<?xml version="1.0" encoding="UTF-8" standalone="no"?>
<!-- Created with Inkscape (http://www.inkscape.org/) -->

<svg
   xmlns:dc="http://purl.org/dc/elements/1.1/"
   xmlns:cc="http://creativecommons.org/ns#"
   xmlns:rdf="http://www.w3.org/1999/02/22-rdf-syntax-ns#"
   xmlns:svg="http://www.w3.org/2000/svg"
   xmlns="http://www.w3.org/2000/svg"
   xmlns:sodipodi="http://sodipodi.sourceforge.net/DTD/sodipodi-0.dtd"
   xmlns:inkscape="http://www.inkscape.org/namespaces/inkscape"
   width="800mm"
   height="400mm"
   viewBox="0 0 800 400"
   version="1.1"
   id="svg25"
   inkscape:version="0.92.1 r15371"
   sodipodi:docname="steezify_logo_vector.svg">
  <defs
     id="defs19" />
  <sodipodi:namedview
     id="base"
     pagecolor="#ffffff"
     bordercolor="#666666"
     borderopacity="1.0"
     inkscape:pageopacity="0.0"
     inkscape:pageshadow="2"
     inkscape:zoom="0.70710678"
     inkscape:cx="1358.0789"
     inkscape:cy="670.3784"
     inkscape:document-units="mm"
     inkscape:current-layer="layer1"
     showgrid="false"
     inkscape:window-width="2736"
     inkscape:window-height="1699"
     inkscape:window-x="-13"
     inkscape:window-y="-13"
     inkscape:window-maximized="1"
     width="800mm" />
  <metadata
     id="metadata22">
    <rdf:RDF>
      <cc:Work
         rdf:about="">
        <dc:format>image/svg+xml</dc:format>
        <dc:type
           rdf:resource="http://purl.org/dc/dcmitype/StillImage" />
        <dc:title></dc:title>
      </cc:Work>
    </rdf:RDF>
  </metadata>
  <g
     inkscape:label="Layer 1"
     inkscape:groupmode="layer"
     id="layer1"
     transform="translate(0,103)">
    <path
       style="fill:#000000;stroke-width:1.16865969"
       d="m 739.32783,286.7213 c -1.81267,-0.31857 -4.22611,-1.51171 -5.36313,-2.6511 -1.95284,-1.95682 -2.02692,-3.65564 -1.33729,-30.66514 l 0.73012,-28.59357 -12.4903,-14.57302 c -11.8436,-13.81846 -13.08268,-14.88784 -23.93034,-20.65282 -6.29197,-3.34388 -14.376,-8.68024 -17.9645,-11.85863 -3.58845,-3.17839 -6.87957,-5.35309 -7.31356,-4.83275 -0.43402,0.52033 -2.11759,4.5513 -3.74125,8.9577 -3.47527,9.43114 -3.71464,9.00647 8.7906,15.59353 10.30166,5.4263 12.02891,7.72927 11.16244,14.88305 -0.87262,7.20433 -5.75463,20.59718 -8.4691,23.23329 -2.74628,2.66698 -9.14545,1.16984 -17.36069,-4.06179 -3.23324,-2.05902 -6.13547,-3.45303 -6.44933,-3.09781 -1.90509,2.15586 -3.89991,17.83425 -4.52572,35.57002 l -0.72376,20.51274 -6.04226,0.80945 c -3.32321,0.44544 -146.72667,0.86479 -318.67431,0.93241 l -312.632068,0.1231 -2.38868,-2.87734 c -2.2414309,-2.69997 -2.3886828,-4.07091 -2.3886828,-22.23985 0,-16.59379 0.274914,-19.74455 1.9225338,-22.03442 1.767297,-2.4562 4.849875,-3.01605 38.17601,-6.93331 70.447307,-8.28066 109.870417,-13.39585 110.833497,-14.38089 1.05167,-1.07567 -1.33004,-24.77701 -2.48909,-24.76987 -0.60378,0.004 -78.77038,12.31619 -127.285051,20.04937 -14.339659,2.28573 -18.113588,2.53682 -19.225326,1.27917 C 9.0721556,213.2251 8.6991262,195.40622 8.4669171,134.11221 8.2077813,65.70978 8.383708,55.102888 9.8041551,53.495509 11.014923,52.125367 15.372934,51.436819 26.581406,50.844877 75.104476,48.282111 103.65662,43.182469 134.22507,31.618681 c 47.32304,-17.901866 104.96671,-55.395017 135.84342,-88.356604 4.17079,-4.452443 12.2492,-14.673295 17.95201,-22.713056 5.70279,-8.039761 10.73589,-14.617755 11.18466,-14.617755 0.44875,0 1.77555,0.793376 2.94842,1.763047 2.00541,1.657984 2.15189,3.769674 2.4576,35.431173 0.17879,18.517443 0.47995,33.668083 0.66922,33.668083 0.1893,0 4.03117,-1.927736 8.53754,-4.283853 20.04765,-10.481822 39.57631,-13.725289 76.15819,-12.648864 60.12184,1.769062 93.14336,9.376923 136.05054,31.3448577 17.46079,8.93965639 34.7227,20.2033843 44.32044,28.9199463 4.34075,3.942211 22.60685,21.959008 40.59132,40.037306 39.94731,40.155768 61.0789,60.483198 72.48611,69.727708 11.4026,9.24079 33.57895,23.52001 44.16029,28.43461 13.41457,6.23043 15.76232,8.44282 20.96231,19.75349 2.54336,5.5322 4.97004,10.05621 5.39261,10.05339 0.4226,-0.002 4.38301,-3.54188 8.80094,-7.86455 l 8.03259,-7.85938 6.58228,1.01868 c 6.68368,1.03437 10.75677,2.78873 12.21596,5.2617 0.44391,0.75236 0.8147,7.87282 0.82396,15.82326 0.0208,16.76186 1.13901,14.80025 -14.13252,24.76192 l -10.56897,6.89417 -0.54929,28.18469 c -0.45404,23.298 -0.84641,28.52042 -2.26304,30.12112 -1.77717,2.00813 -16.77619,3.43941 -23.55383,2.24767 z M 222.41866,275.59313 c 1.12291,-1.3903 -23.56199,-136.72569 -25.34121,-138.9337 -1.21474,-1.50749 -9.67536,-0.14143 -77.18373,12.46279 l -56.955921,10.63396 -2.642608,-2.8094 c -2.60489,-2.76928 -2.642608,-3.13507 -2.642608,-25.62263 0,-22.61932 0.02118,-22.8224 2.510843,-23.89351 1.380965,-0.59416 11.639051,-1.99968 22.795751,-3.12342 34.071833,-3.43179 63.653233,-10.163762 92.242563,-20.991968 l 13.73237,-5.201134 -0.39163,-7.459189 c -0.21541,-4.102578 -1.33859,-11.65499 -2.49601,-16.783195 -2.50312,-11.090675 -9.52418,-28.593575 -11.46993,-28.593575 -0.75752,0 -5.49962,2.002869 -10.53802,4.450845 -27.89601,13.5535 -57.77439,22.566644 -89.9071,27.121519 -12.458998,1.766096 -44.705669,4.460285 -53.556276,4.474616 l -3.570419,0.0047 v 70.788951 c 0,38.93391 0.370787,71.03037 0.823945,71.32545 1.125482,0.73286 8.24761,-0.28051 77.625848,-11.04745 33.177692,-5.14884 61.847452,-9.19282 63.710592,-8.98669 2.48518,0.27488 3.79232,1.33495 4.90709,3.97947 1.82992,4.3409 4.51941,23.73056 4.53021,32.66007 0.009,7.29854 1.04282,6.64124 -14.27391,9.07352 -6.38643,1.01412 -135.385484,17.44323 -136.961961,17.44323 -0.199012,0 -0.361818,6.70396 -0.361818,14.89775 v 14.8977 l 28.837995,0.44732 c 49.247833,0.76372 175.679924,-0.1076 176.575924,-1.21701 z m 81.67884,-1.98609 c 8.13629,-12.31366 19.45847,-39.6405 24.33099,-58.72442 10.04569,-39.34543 8.0068,-79.61359 -5.68765,-112.3313 C 316.3637,87.315539 305.94466,71.060756 283.96775,42.061359 269.84906,23.431146 267.48332,19.933386 267.48332,17.689004 c 0,-1.127407 6.42675,-9.0960766 14.28167,-17.70809247 L 296.04666,-15.677372 v -28.884899 -28.884894 l -11.10588,13.344219 c -20.95139,25.1741 -50.46572,49.03345 -92.43625,74.725389 -5.28696,3.236372 -9.61266,6.131101 -9.61266,6.432805 0,0.301656 1.92008,4.871755 4.26686,10.155727 4.79014,10.7854 8.28452,22.688763 9.40697,32.044203 1.17727,9.812299 1.76808,10.327042 7.96601,6.939936 2.9016,-1.585671 12.26729,-8.144871 20.81267,-14.57598 8.54538,-6.43116 15.98412,-11.693002 16.53055,-11.693002 2.90707,0 23.25721,29.41683 32.42234,46.867621 11.77268,22.415627 14.6892,37.083187 13.75323,69.166817 -0.46239,15.85013 -1.17687,22.72231 -3.38179,32.52775 -7.95839,35.39147 -18.25282,58.75577 -33.49961,76.03092 -3.7159,4.21022 -6.75618,7.98643 -6.75618,8.3916 0,0.40502 12.82835,0.73656 28.50744,0.73656 h 28.50744 z m 158.60179,1.98628 c 0.38324,-1.12976 0.73838,-6.864 0.78949,-12.74279 l 0.093,-10.6887 -55.75344,0.30495 c -30.66441,0.16774 -55.75345,0.005 -55.75345,-0.36086 0,-0.36603 2.19026,-10.57334 4.86728,-22.68246 7.91856,-35.81882 8.5964,-40.8555 8.97553,-66.69281 0.25868,-17.63672 0.70163,-23.76252 1.76542,-24.42188 1.31951,-0.81786 17.58216,-3.85064 29.77261,-5.55218 3.06869,-0.42852 5.53432,-1.48061 5.88372,-2.51098 0.51657,-1.52328 -6.73188,-32.609607 -7.91604,-33.949677 -0.93365,-1.056503 -15.69561,3.974957 -23.24891,7.924177 -12.45653,6.51282 -11.58018,6.87664 -20.14914,-8.365009 -11.2155,-19.949138 -22.16603,-36.122117 -33.18551,-49.012202 -6.82943,-7.988733 -9.66289,-12.156294 -9.19765,-13.528268 0.84676,-2.497078 18.20506,-11.724389 29.79889,-15.840499 16.63777,-5.906832 37.88266,-9.5713499 55.60012,-9.5904267 5.20265,-0.0047 11.753,-0.3660289 14.55632,-0.8007998 l 5.09702,-0.7905566 V -12.113312 c 0,-12.604362 -0.4011,-18.68608 -1.2723,-19.295408 -2.21875,-1.551793 -50.33017,-1.069143 -61.89669,0.620934 -14.51059,2.120242 -30.45082,6.775387 -36.15594,10.558923 -9.79584,6.496378 -39.13569,34.541144 -39.06276,37.33847 0.0191,0.732104 7.46891,11.960404 16.55516,24.951845 27.59184,39.450532 41.33968,65.028668 45.97473,85.537088 2.44655,10.82506 4.44028,32.69216 4.44565,48.75952 0.008,23.98649 -12.59412,67.86396 -26.23508,91.34388 -2.18482,3.76066 -4.36773,7.53686 -4.85092,8.39156 -0.69975,1.23778 14.45381,1.554 74.46396,1.554 69.04379,0 75.40074,-0.1715 76.03905,-2.05409 z m 102.22735,0.82786 14.55633,-0.0188 V 263.97042 251.53841 H 559.15901 538.8351 v 12.35322 12.35321 l 3.57044,0.52574 c 1.96372,0.28897 4.55914,0.3322 5.76759,0.0958 1.20844,-0.23634 8.74754,-0.43745 16.75351,-0.44684 z m 54.5472,-0.32796 c 0.20512,-0.8547 1.16352,-9.10642 2.13014,-18.33716 1.98281,-18.93558 7.42575,-45.24831 13.37254,-64.64629 5.90253,-19.25387 13.48901,-34.64686 28.54792,-57.92386 l 4.90016,-7.57435 -15.98616,-15.42485 c -8.79235,-8.48365 -16.38468,-15.588509 -16.87186,-15.78858 -1.30302,-0.535182 -11.61253,13.75188 -18.43759,25.55112 -14.27103,24.67199 -22.26151,53.68694 -27.1892,98.72908 -1.6433,15.02076 -2.25333,47.53511 -0.9917,52.85921 0.76304,3.22002 2.72306,3.62651 18.85804,3.91073 8.22749,0.14472 11.39624,-0.22318 11.66771,-1.35505 z m 136.88213,-25.85287 c 0,-32.25767 -1.19321,-29.24914 15.70045,-39.58562 l 10.75141,-6.57833 -0.31764,-10.14529 -0.31764,-10.14535 -4.22896,-0.39328 c -3.76194,-0.35005 -5.27295,0.51418 -13.68197,7.8232 -5.93824,5.16143 -10.2887,8.08106 -11.7006,7.85238 -1.61277,-0.26125 -3.84933,-3.8753 -7.91873,-12.79598 -5.2991,-11.61646 -6.01979,-12.61052 -10.98589,-15.15289 -9.37905,-4.8016 -10.25378,-4.35696 -14.94135,7.59517 -2.25819,5.75774 -4.10577,10.93426 -4.10577,11.50332 0,0.56906 5.93238,8.23447 13.18308,17.03415 l 13.18308,15.99951 v 27.19792 27.19786 h 7.69012 7.69012 z m -230.03338,23.3665 c 1.17328,-4.00912 0.94034,-19.49792 -0.31473,-20.91806 -0.63379,-0.71721 -10.94117,-1.06303 -25.7,-0.8623 l -24.64181,0.33501 -0.31432,12.1212 -0.31432,12.12119 h 25.23329 c 25.19298,0 25.23467,-0.005 26.05197,-2.79718 z m 117.12299,-14.29679 c 0.49851,-17.25814 3.71647,-37.24688 6.7529,-41.94601 1.27118,-1.9673 2.17336,-1.68463 11.45101,3.58826 5.53914,3.14808 10.84015,5.72382 11.78003,5.72382 1.92373,0 6.02514,-9.75258 6.02514,-14.32696 0,-2.3158 -1.39715,-3.77475 -6.64755,-6.94153 -7.86555,-4.74409 -15.32426,-12.53797 -15.32426,-16.01275 0,-5.99583 9.95441,-28.6112 12.59127,-28.60608 0.6276,10e-4 5.09602,3.36019 9.92983,7.46441 8.18738,6.95154 22.25408,14.91095 26.3523,14.91095 1.15853,0 3.11673,-3.30253 5.56932,-9.39284 2.0804,-5.16609 3.78257,-9.79219 3.78257,-10.28025 0,-0.48805 -3.01878,-2.76542 -6.70842,-5.06078 -3.68965,-2.29541 -12.59971,-8.57837 -19.8002,-13.96215 -7.20046,-5.38377 -13.53087,-9.78871 -14.06749,-9.78871 -0.96276,0 -9.61672,12.61071 -16.29716,23.74851 -10.05178,16.75848 -20.65957,48.03225 -25.8902,76.32896 -3.16021,17.09598 -5.59279,38.53936 -4.58195,40.39022 0.37744,0.69132 3.81455,1.2569 7.63781,1.2569 h 6.95132 z m -399.5974,3.25005 c 14.533,-15.38439 24.19921,-37.23655 32.03624,-72.42358 3.41206,-15.31955 4.8104,-48.34598 2.64408,-62.44866 C 275.96378,110.99145 266.70392,90.337368 252.39273,69.391965 241.41723,53.328611 242.61695,53.85261 233.67187,61.215095 216.31571,75.500559 199.80414,84.769547 176.30033,93.421267 142.36784,105.91178 123.23225,109.98494 72.208903,115.57814 l -5.767601,0.63221 v 15.994 15.99396 l 4.119715,-0.65697 c 7.547587,-1.20357 124.928433,-22.9642 127.209883,-23.58279 5.58531,-1.51434 6.29684,1.21814 21.89154,84.0696 6.37067,33.84607 11.81937,62.26175 12.10821,63.1459 0.76747,2.34926 3.69033,0.26454 12.07753,-8.61394 z m 127.70579,-29.66802 c 7.70681,-31.40228 17.56094,-89.84703 15.25085,-90.45237 -0.67269,-0.1762 -3.33538,0.10338 -5.91706,0.62159 l -4.69401,0.94209 -0.54331,14.29679 c -0.84297,22.18224 -5.08066,54.71084 -9.90284,76.01457 -2.08891,9.22834 -2.02226,10.01086 0.81233,9.54179 2.0005,-0.33126 2.83293,-2.15863 4.99404,-10.96446 z m 59.35304,8.3916 c 0.67622,-0.95408 1.29564,-21.07725 1.60456,-52.12538 0.44486,-44.70994 0.71774,-50.94192 2.35423,-53.76833 l 1.85107,-3.19695 h 16.45352 16.45353 V 114.16665 96.140265 h -14.97594 c -13.46817,0 -15.36587,-0.272525 -18.84886,-2.708661 l -3.87296,-2.70866 0.71969,-37.150236 c 0.41874,-21.615391 1.19627,-38.157923 1.85941,-39.560063 0.7672,-1.622274 2.30171,-2.409823 4.6953,-2.409823 5.63937,0 27.91944,6.875845 52.84249,16.307738 12.63267,4.780694 23.26152,8.211028 23.61972,7.622986 0.35833,-0.588043 3.64368,-5.513692 7.3011,-10.945955 C 535.0703,6.6063632 534.99909,6.7523519 532.6393,4.7414014 529.23142,1.8372747 506.22854,-8.9914948 490.65486,-15.023125 c -17.0034,-6.585324 -56.99348,-15.642824 -69.06545,-15.642824 -1.0884,0 -1.40234,5.35356 -1.40342,23.9315697 l -10e-4,23.9315693 h -9.24577 c -5.08518,0 -9.55817,0.353813 -9.93992,0.786281 -0.38158,0.432281 -0.16193,6.586312 0.48834,13.675196 0.65031,7.088885 1.12531,22.24093 1.05552,33.671176 -0.12,19.651804 0.0208,21.139554 2.58475,27.350345 4.49637,10.890932 8.82528,29.451562 8.92563,38.269662 l 0.0918,8.08078 -7.51772,0.84088 c -4.13472,0.46235 -7.7294,1.08042 -7.98812,1.37319 -0.25868,0.29273 -1.90048,10.26404 -3.64829,22.15833 -3.97045,27.01974 -9.3199,54.47713 -15.05215,77.25906 -0.50997,2.02679 1.1768,2.1756 24.65969,2.1756 18.84587,0 25.48504,-0.39234 26.30849,-1.554 z m 148.96863,-2.22174 c 0.36705,-2.07668 0.99307,-9.02019 1.39122,-15.42997 l 0.72392,-11.65424 -5.62629,-3.22632 c -19.93668,-11.4325 -44.36354,-17.67919 -71.47082,-18.2772 -9.70636,-0.21426 -11.62815,0.0695 -12.80482,1.89062 -2.1852,3.38185 -3.99915,21.2846 -3.60245,35.55447 l 0.3629,13.05356 9.88731,0.69747 c 5.43803,0.38389 25.76879,0.8032 45.17952,0.93241 l 35.29221,0.23494 z m -103.53138,-6.16986 c -0.33217,-10.33264 1.63827,-32.1895 3.69882,-41.02555 2.64812,-11.35577 3.29311,-11.62567 25.83432,-10.80865 27.85587,1.00965 45.20099,5.06933 65.6877,15.37452 6.21914,3.12835 11.58223,5.37696 11.91805,4.99698 0.33591,-0.38013 1.98378,-8.14168 3.66212,-17.24809 6.48254,-35.17321 16.32435,-59.42129 34.47274,-84.933031 3.40485,-4.786286 6.19343,-9.353237 6.1968,-10.148774 0.008,-1.69158 -55.0771,-57.578829 -63.16283,-64.083571 C 557.81529,19.516 548.3677,14.089187 545.62952,14.089187 c -1.85041,0 -12.37109,13.777017 -18.1741,23.799301 l -1.88715,3.259255 4.71091,3.069709 c 2.59098,1.688337 10.77525,6.593735 18.1873,10.900894 7.59652,4.414332 16.21851,10.546561 19.76117,14.054706 8.94855,8.861423 24.4384,28.382556 24.4384,30.798582 0,1.122376 -2.91149,9.011546 -6.46992,17.531466 -7.53168,18.03291 -11.27372,29.3379 -14.43085,43.59677 -3.81097,17.21181 -4.24574,18.33471 -7.09939,18.33471 -1.4092,0 -13.11204,-3.41018 -26.00634,-7.57816 -12.89426,-4.16799 -27.74941,-8.64327 -33.0114,-9.94509 -9.89312,-2.44755 -36.36994,-6.49807 -52.22842,-7.99 l -9.06336,-0.85272 v 44.29617 44.29616 l 16.12389,-0.34394 16.12388,-0.34395 z m 86.38075,-70.24071 c 6.02053,-21.87208 10.1819,-34.46991 15.77406,-47.75329 7.41214,-17.606455 7.77786,-14.5795 -3.36918,-27.883127 -7.88327,-9.408399 -15.14402,-14.960808 -34.40705,-26.311556 -19.86311,-11.704321 -55.366,-26.742893 -82.08481,-34.770061 -15.95195,-4.792441 -14.28166,-8.1179 -14.28166,28.434618 v 31.576353 l 14.00699,0.817433 c 18.29293,1.067545 19.95496,1.476802 21.21376,5.223453 0.56798,1.690546 1.03273,12.268077 1.03273,23.505587 0,25.12513 -0.0947,25.32126 -12.35917,25.55906 -4.38061,0.085 -11.42531,0.5045 -15.6549,0.93241 -7.37086,0.74568 -6.77794,0.89379 14.28166,3.56782 27.12057,3.44358 48.50186,8.34306 71.40837,16.36304 9.66758,3.3848 18.81336,6.05451 20.32392,5.93263 2.17813,-0.17574 3.02974,-1.25066 4.11528,-5.19437 z M 390.2508,85.89047 c 2.43818,-0.696395 2.47182,-0.984848 2.47182,-21.203457 0,-18.117391 -1.60257,-45.366338 -2.74404,-46.658058 -0.88899,-1.005992 -30.1154,3.887659 -39.7692,6.658906 -10.35086,2.971318 -22.52882,8.468659 -24.39399,11.011878 -0.68562,0.934854 1.35297,4.676289 6.17288,11.329087 8.74129,12.065322 15.37896,23.119583 24.3408,40.53659 l 6.7822,13.180944 12.33385,-7.074934 c 6.78362,-3.89123 13.44616,-7.392656 14.80568,-7.780956 z M 561.93834,-39.444351 c -8.05347,-3.826388 -15.37695,-15.320775 -15.40237,-24.174351 -0.0453,-15.806763 12.16938,-28.984366 25.69041,-27.715482 4.50998,0.423353 7.16213,1.578388 11.24706,4.898867 15.47137,12.575888 16.0851,33.186133 1.31751,44.245233 -3.73357,2.796009 -5.97287,3.471495 -12.34974,3.725178 -4.28407,0.170563 -9.01038,-0.270176 -10.50287,-0.979445 z m 19.94374,-14.838031 c 5.80895,-6.819977 6.64714,-10.835159 3.637,-17.422317 -2.07508,-4.541013 -10.04908,-9.932163 -14.69048,-9.932163 -5.60383,0 -12.13998,4.455497 -14.02485,9.560355 -1.35651,3.673962 -1.41447,5.503825 -0.3355,10.593224 1.72502,8.137071 7.6809,13.412773 15.14215,13.412773 4.53818,0 5.45095,-0.55205 10.27176,-6.211872 z"
       id="path38"
       inkscape:connector-curvature="0" />
  </g>
</svg>
