<?xml version="1.0" encoding="UTF-8" standalone="no"?>
<!-- Created with Inkscape (http://www.inkscape.org/) -->

<svg
   xmlns:dc="http://purl.org/dc/elements/1.1/"
   xmlns:cc="http://creativecommons.org/ns#"
   xmlns:rdf="http://www.w3.org/1999/02/22-rdf-syntax-ns#"
   xmlns:svg="http://www.w3.org/2000/svg"
   xmlns="http://www.w3.org/2000/svg"
   xmlns:sodipodi="http://sodipodi.sourceforge.net/DTD/sodipodi-0.dtd"
   xmlns:inkscape="http://www.inkscape.org/namespaces/inkscape"
   width="800mm"
   height="400mm"
   viewBox="0 0 800 400"
   version="1.1"
   id="svg25"
   inkscape:version="0.92.1 r15371"
   sodipodi:docname="steezify_logo_vector_filled_white.svg"
   inkscape:export-filename="C:\Users\andyr\Pictures\Steezify\DJ Logo\steezify_4k_black.png"
   inkscape:export-xdpi="124.69"
   inkscape:export-ydpi="124.69">
  <defs
     id="defs19" />
  <sodipodi:namedview
     id="base"
     pagecolor="#ffffff"
     bordercolor="#666666"
     borderopacity="1.0"
     inkscape:pageopacity="0.0"
     inkscape:pageshadow="2"
     inkscape:zoom="0.50000001"
     inkscape:cx="1039.7606"
     inkscape:cy="504.27397"
     inkscape:document-units="mm"
     inkscape:current-layer="layer1"
     showgrid="false"
     inkscape:window-width="2736"
     inkscape:window-height="1699"
     inkscape:window-x="-13"
     inkscape:window-y="-13"
     inkscape:window-maximized="1"
     width="800mm" />
  <metadata
     id="metadata22">
    <rdf:RDF>
      <cc:Work
         rdf:about="">
        <dc:format>image/svg+xml</dc:format>
        <dc:type
           rdf:resource="http://purl.org/dc/dcmitype/StillImage" />
        <dc:title />
      </cc:Work>
    </rdf:RDF>
  </metadata>
  <g
     inkscape:label="Layer 1"
     inkscape:groupmode="layer"
     id="layer1"
     transform="translate(0,103)">
    <path
       style="fill:#000000;stroke-width:1.16865969"
       d="m 739.32783,286.7213 c -1.81267,-0.31857 -4.22611,-1.51171 -5.36313,-2.6511 -1.95284,-1.95682 -2.02692,-3.65564 -1.33729,-30.66514 l 0.73012,-28.59357 -12.4903,-14.57302 c -11.8436,-13.81846 -13.08268,-14.88784 -23.93034,-20.65282 -6.29197,-3.34388 -14.376,-8.68024 -17.9645,-11.85863 -3.58845,-3.17839 -6.87957,-5.35309 -7.31356,-4.83275 -0.43402,0.52033 -2.11759,4.5513 -3.74125,8.9577 -3.47527,9.43114 -3.71464,9.00647 8.7906,15.59353 10.30166,5.4263 12.02891,7.72927 11.16244,14.88305 -0.87262,7.20433 -5.75463,20.59718 -8.4691,23.23329 -2.74628,2.66698 -9.14545,1.16984 -17.36069,-4.06179 -3.23324,-2.05902 -6.13547,-3.45303 -6.44933,-3.09781 -1.90509,2.15586 -3.89991,17.83425 -4.52572,35.57002 l -0.72376,20.51274 -6.04226,0.80945 c -3.32321,0.44544 -146.72667,0.86479 -318.67431,0.93241 l -312.632068,0.1231 -2.38868,-2.87734 c -2.2414309,-2.69997 -2.3886828,-4.07091 -2.3886828,-22.23985 0,-16.59379 0.274914,-19.74455 1.9225338,-22.03442 1.767297,-2.4562 4.849875,-3.01605 38.17601,-6.93331 70.447307,-8.28066 109.870417,-13.39585 110.833497,-14.38089 1.05167,-1.07567 -1.33004,-24.77701 -2.48909,-24.76987 -0.60378,0.004 -78.77038,12.31619 -127.285051,20.04937 -14.339659,2.28573 -18.113588,2.53682 -19.225326,1.27917 C 9.0721556,213.2251 8.6991262,195.40622 8.4669171,134.11221 8.2077813,65.70978 8.383708,55.102888 9.8041551,53.495509 11.014923,52.125367 15.372934,51.436819 26.581406,50.844877 75.104476,48.282111 103.65662,43.182469 134.22507,31.618681 c 47.32304,-17.901866 104.96671,-55.395017 135.84342,-88.356604 4.17079,-4.452443 12.2492,-14.673295 17.95201,-22.713056 5.70279,-8.039761 10.73589,-14.617755 11.18466,-14.617755 0.44875,0 1.77555,0.793376 2.94842,1.763047 2.00541,1.657984 2.15189,3.769674 2.4576,35.431173 0.17879,18.517443 0.47995,33.668083 0.66922,33.668083 0.1893,0 4.03117,-1.927736 8.53754,-4.283853 20.04765,-10.481822 39.57631,-13.725289 76.15819,-12.648864 60.12184,1.769062 93.14336,9.376923 136.05054,31.3448577 17.46079,8.93965639 34.7227,20.2033843 44.32044,28.9199463 4.34075,3.942211 22.60685,21.959008 40.59132,40.037306 39.94731,40.155768 61.0789,60.483198 72.48611,69.727708 11.4026,9.24079 33.57895,23.52001 44.16029,28.43461 13.41457,6.23043 15.76232,8.44282 20.96231,19.75349 2.54336,5.5322 4.97004,10.05621 5.39261,10.05339 0.4226,-0.002 4.38301,-3.54188 8.80094,-7.86455 l 8.03259,-7.85938 6.58228,1.01868 c 6.68368,1.03437 10.75677,2.78873 12.21596,5.2617 0.44391,0.75236 0.8147,7.87282 0.82396,15.82326 0.0208,16.76186 1.13901,14.80025 -14.13252,24.76192 l -10.56897,6.89417 -0.54929,28.18469 c -0.45404,23.298 -0.84641,28.52042 -2.26304,30.12112 -1.77717,2.00813 -16.77619,3.43941 -23.55383,2.24767 z M 222.41866,275.59313 c 1.12291,-1.3903 -23.56199,-136.72569 -25.34121,-138.9337 -1.21474,-1.50749 -9.67536,-0.14143 -77.18373,12.46279 l -56.955921,10.63396 -2.642608,-2.8094 c -2.60489,-2.76928 -2.642608,-3.13507 -2.642608,-25.62263 0,-22.61932 0.02118,-22.8224 2.510843,-23.89351 1.380965,-0.59416 11.639051,-1.99968 22.795751,-3.12342 34.071833,-3.43179 63.653233,-10.163762 92.242563,-20.991968 l 13.73237,-5.201134 -0.39163,-7.459189 c -0.21541,-4.102578 -1.33859,-11.65499 -2.49601,-16.783195 -2.50312,-11.090675 -9.52418,-28.593575 -11.46993,-28.593575 -0.75752,0 -5.49962,2.002869 -10.53802,4.450845 -27.89601,13.5535 -57.77439,22.566644 -89.9071,27.121519 -12.458998,1.766096 -44.705669,4.460285 -53.556276,4.474616 l -3.570419,0.0047 v 70.788951 c 0,38.93391 0.370787,71.03037 0.823945,71.32545 1.125482,0.73286 8.24761,-0.28051 77.625848,-11.04745 33.177692,-5.14884 61.847452,-9.19282 63.710592,-8.98669 2.48518,0.27488 3.79232,1.33495 4.90709,3.97947 1.82992,4.3409 4.51941,23.73056 4.53021,32.66007 0.009,7.29854 1.04282,6.64124 -14.27391,9.07352 -6.38643,1.01412 -135.385484,17.44323 -136.961961,17.44323 -0.199012,0 -0.361818,6.70396 -0.361818,14.89775 v 14.8977 l 28.837995,0.44732 c 49.247833,0.76372 175.679924,-0.1076 176.575924,-1.21701 z m 81.67884,-1.98609 c 8.13629,-12.31366 19.45847,-39.6405 24.33099,-58.72442 10.04569,-39.34543 8.0068,-79.61359 -5.68765,-112.3313 C 316.3637,87.315539 305.94466,71.060756 283.96775,42.061359 269.84906,23.431146 267.48332,19.933386 267.48332,17.689004 c 0,-1.127407 6.42675,-9.0960766 14.28167,-17.70809247 L 296.04666,-15.677372 v -28.884899 -28.884894 l -11.10588,13.344219 c -20.95139,25.1741 -50.46572,49.03345 -92.43625,74.725389 -5.28696,3.236372 -9.61266,6.131101 -9.61266,6.432805 0,0.301656 1.92008,4.871755 4.26686,10.155727 4.79014,10.7854 8.28452,22.688763 9.40697,32.044203 1.17727,9.812299 1.76808,10.327042 7.96601,6.939936 2.9016,-1.585671 12.26729,-8.144871 20.81267,-14.57598 8.54538,-6.43116 15.98412,-11.693002 16.53055,-11.693002 2.90707,0 23.25721,29.41683 32.42234,46.867621 11.77268,22.415627 14.6892,37.083187 13.75323,69.166817 -0.46239,15.85013 -1.17687,22.72231 -3.38179,32.52775 -7.95839,35.39147 -18.25282,58.75577 -33.49961,76.03092 -3.7159,4.21022 -6.75618,7.98643 -6.75618,8.3916 0,0.40502 12.82835,0.73656 28.50744,0.73656 h 28.50744 z m 158.60179,1.98628 c 0.38324,-1.12976 0.73838,-6.864 0.78949,-12.74279 l 0.093,-10.6887 -55.75344,0.30495 c -30.66441,0.16774 -55.75345,0.005 -55.75345,-0.36086 0,-0.36603 2.19026,-10.57334 4.86728,-22.68246 7.91856,-35.81882 8.5964,-40.8555 8.97553,-66.69281 0.25868,-17.63672 0.70163,-23.76252 1.76542,-24.42188 1.31951,-0.81786 17.58216,-3.85064 29.77261,-5.55218 3.06869,-0.42852 5.53432,-1.48061 5.88372,-2.51098 0.51657,-1.52328 -6.73188,-32.609607 -7.91604,-33.949677 -0.93365,-1.056503 -15.69561,3.974957 -23.24891,7.924177 -12.45653,6.51282 -11.58018,6.87664 -20.14914,-8.365009 -11.2155,-19.949138 -22.16603,-36.122117 -33.18551,-49.012202 -6.82943,-7.988733 -9.66289,-12.156294 -9.19765,-13.528268 0.84676,-2.497078 18.20506,-11.724389 29.79889,-15.840499 16.63777,-5.906832 37.88266,-9.5713499 55.60012,-9.5904267 5.20265,-0.0047 11.753,-0.3660289 14.55632,-0.8007998 l 5.09702,-0.7905566 V -12.113312 c 0,-12.604362 -0.4011,-18.68608 -1.2723,-19.295408 -2.21875,-1.551793 -50.33017,-1.069143 -61.89669,0.620934 -14.51059,2.120242 -30.45082,6.775387 -36.15594,10.558923 -9.79584,6.496378 -39.13569,34.541144 -39.06276,37.33847 0.0191,0.732104 7.46891,11.960404 16.55516,24.951845 27.59184,39.450532 41.33968,65.028668 45.97473,85.537088 2.44655,10.82506 4.44028,32.69216 4.44565,48.75952 0.008,23.98649 -12.59412,67.86396 -26.23508,91.34388 -2.18482,3.76066 -4.36773,7.53686 -4.85092,8.39156 -0.69975,1.23778 14.45381,1.554 74.46396,1.554 69.04379,0 75.40074,-0.1715 76.03905,-2.05409 z m 102.22735,0.82786 14.55633,-0.0188 V 263.97042 251.53841 H 559.15901 538.8351 v 12.35322 12.35321 l 3.57044,0.52574 c 1.96372,0.28897 4.55914,0.3322 5.76759,0.0958 1.20844,-0.23634 8.74754,-0.43745 16.75351,-0.44684 z m 54.5472,-0.32796 c 0.20512,-0.8547 1.16352,-9.10642 2.13014,-18.33716 1.98281,-18.93558 7.42575,-45.24831 13.37254,-64.64629 5.90253,-19.25387 13.48901,-34.64686 28.54792,-57.92386 l 4.90016,-7.57435 -15.98616,-15.42485 c -8.79235,-8.48365 -16.38468,-15.588509 -16.87186,-15.78858 -1.30302,-0.535182 -11.61253,13.75188 -18.43759,25.55112 -14.27103,24.67199 -22.26151,53.68694 -27.1892,98.72908 -1.6433,15.02076 -2.25333,47.53511 -0.9917,52.85921 0.76304,3.22002 2.72306,3.62651 18.85804,3.91073 8.22749,0.14472 11.39624,-0.22318 11.66771,-1.35505 z m 136.88213,-25.85287 c 0,-32.25767 -1.19321,-29.24914 15.70045,-39.58562 l 10.75141,-6.57833 -0.31764,-10.14529 -0.31764,-10.14535 -4.22896,-0.39328 c -3.76194,-0.35005 -5.27295,0.51418 -13.68197,7.8232 -5.93824,5.16143 -10.2887,8.08106 -11.7006,7.85238 -1.61277,-0.26125 -3.84933,-3.8753 -7.91873,-12.79598 -5.2991,-11.61646 -6.01979,-12.61052 -10.98589,-15.15289 -9.37905,-4.8016 -10.25378,-4.35696 -14.94135,7.59517 -2.25819,5.75774 -4.10577,10.93426 -4.10577,11.50332 0,0.56906 5.93238,8.23447 13.18308,17.03415 l 13.18308,15.99951 v 27.19792 27.19786 h 7.69012 7.69012 z m -230.03338,23.3665 c 1.17328,-4.00912 1.93253,-33.65313 0.67746,-35.07327 -21.90118,0.13442 -28.85801,-0.95795 -50.80483,-0.65958 l -45.20495,0.27218 -0.11624,4.14947 44.77216,-0.0346 -0.29446,22.02162 -0.31432,12.12119 h 25.23329 c 25.19298,0 25.23467,-0.005 26.05197,-2.79718 z m 117.12299,-14.29679 c 0.49851,-17.25814 3.71647,-37.24688 6.7529,-41.94601 1.27118,-1.9673 2.17336,-1.68463 11.45101,3.58826 5.53914,3.14808 10.84015,5.72382 11.78003,5.72382 1.92373,0 6.02514,-9.75258 6.02514,-14.32696 0,-2.3158 -1.39715,-3.77475 -6.64755,-6.94153 -7.86555,-4.74409 -15.32426,-12.53797 -15.32426,-16.01275 0,-5.99583 9.95441,-28.6112 12.59127,-28.60608 0.6276,10e-4 5.09602,3.36019 9.92983,7.46441 8.18738,6.95154 22.25408,14.91095 26.3523,14.91095 1.15853,0 3.11673,-3.30253 5.56932,-9.39284 2.0804,-5.16609 3.78257,-9.79219 3.78257,-10.28025 0,-0.48805 -3.01878,-2.76542 -6.70842,-5.06078 -3.68965,-2.29541 -12.59971,-8.57837 -19.8002,-13.96215 -7.20046,-5.38377 -13.53087,-9.78871 -14.06749,-9.78871 -0.96276,0 -9.61672,12.61071 -16.29716,23.74851 -10.05178,16.75848 -20.65957,48.03225 -25.8902,76.32896 -3.16021,17.09598 -5.59279,38.53936 -4.58195,40.39022 0.37744,0.69132 3.81455,1.2569 7.63781,1.2569 h 6.95132 z m -399.5974,3.25005 c 14.533,-15.38439 24.19921,-37.23655 32.03624,-72.42358 3.41206,-15.31955 4.8104,-48.34598 2.64408,-62.44866 C 275.96378,110.99145 266.70392,90.337368 252.39273,69.391965 241.41723,53.328611 242.61695,53.85261 233.67187,61.215095 216.31571,75.500559 199.80414,84.769547 176.30033,93.421267 142.36784,105.91178 123.23225,109.98494 72.208903,115.57814 l -5.767601,0.63221 v 15.994 15.99396 l 4.119715,-0.65697 c 7.547587,-1.20357 124.928433,-22.9642 127.209883,-23.58279 5.58531,-1.51434 6.29684,1.21814 21.89154,84.0696 6.37067,33.84607 11.81937,62.26175 12.10821,63.1459 0.76747,2.34926 3.69033,0.26454 12.07753,-8.61394 z m 127.70579,-29.66802 c 7.70681,-31.40228 17.56094,-89.84703 15.25085,-90.45237 -0.67269,-0.1762 -3.33538,0.10338 -5.91706,0.62159 l -4.69401,0.94209 -0.54331,14.29679 c -0.84297,22.18224 -5.08066,54.71084 -9.90284,76.01457 -2.08891,9.22834 -2.02226,10.01086 0.81233,9.54179 2.0005,-0.33126 2.83293,-2.15863 4.99404,-10.96446 z m 59.4363,5.25409 c -0.0514,-1.4171 1.21238,-17.93974 1.5213,-48.98787 0.44486,-44.70994 0.71774,-50.94192 2.35423,-53.76833 l 1.85107,-3.19695 h 16.45352 16.45353 V 114.16665 96.140265 h -14.97594 c -13.46817,0 -15.36587,-0.272525 -18.84886,-2.708661 l -3.87296,-2.70866 0.71969,-37.150236 c 0.41874,-21.615391 1.19627,-38.157923 1.85941,-39.560063 0.7672,-1.622274 2.30171,-2.409823 4.6953,-2.409823 5.63937,0 27.91944,6.875845 52.84249,16.307738 12.63267,4.780694 23.26152,8.211028 23.61972,7.622986 0.35833,-0.588043 3.64368,-5.513692 7.3011,-10.945955 C 535.0703,6.6063632 534.99909,6.7523519 532.6393,4.7414014 529.23142,1.8372747 506.22854,-8.9914948 490.65486,-15.023125 c -17.0034,-6.585324 -56.99348,-15.642824 -69.06545,-15.642824 -1.0884,0 -1.40234,5.35356 -1.40342,23.9315697 l -10e-4,23.9315693 h -9.24577 c -5.08518,0 -9.55817,0.353813 -9.93992,0.786281 -0.38158,0.432281 -0.16193,6.586312 0.48834,13.675196 0.65031,7.088885 1.12531,22.24093 1.05552,33.671176 -0.12,19.651804 0.0208,21.139554 2.58475,27.350345 4.49637,10.890932 8.82528,29.451562 8.92563,38.269662 l 0.0918,8.08078 -7.51772,0.84088 c -4.13472,0.46235 -7.7294,1.08042 -7.98812,1.37319 -0.25868,0.29273 -1.90048,10.26404 -3.64829,22.15833 -3.97045,27.01974 -9.3199,54.47713 -15.05215,77.25906 -0.50997,2.02679 1.1768,2.1756 24.65969,2.1756 26.27528,-0.54204 0,0 26.27528,-0.54204 m 149.00161,-3.2337 c 0.36705,-2.07668 0.99307,-9.02019 1.39122,-15.42997 l 0.72392,-11.65424 -5.62629,-3.22632 c -19.93668,-11.4325 -44.36354,-17.67919 -71.47082,-18.2772 -9.70636,-0.21426 -11.62815,0.0695 -12.80482,1.89062 -2.1852,3.38185 -3.99915,21.2846 -3.60245,35.55447 30.39921,1.05565 47.6164,-0.90656 49.83408,1.95021 1.50169,1.93447 -0.0242,7.3752 0.83453,12.66712 4.39407,0.0569 0.26967,0.0362 4.76112,0.0661 l 35.29221,0.23494 z m -99.83256,-47.19541 c 2.64812,-11.35577 3.29311,-11.62567 25.83432,-10.80865 27.85587,1.00965 45.20099,5.06933 65.6877,15.37452 6.21914,3.12835 11.58223,5.37696 11.91805,4.99698 0.33591,-0.38013 1.98378,-8.14168 3.66212,-17.24809 6.48254,-35.17321 16.32435,-59.42129 34.47274,-84.933031 3.40485,-4.786286 6.19343,-9.353237 6.1968,-10.148774 0.008,-1.69158 -55.0771,-57.578829 -63.16283,-64.083571 C 557.81529,19.516 548.3677,14.089187 545.62952,14.089187 c -1.85041,0 -12.37109,13.777017 -18.1741,23.799301 l -1.88715,3.259255 4.71091,3.069709 c 2.59098,1.688337 10.77525,6.593735 18.1873,10.900894 7.59652,4.414332 16.21851,10.546561 19.76117,14.054706 8.94855,8.861423 24.4384,28.382556 24.4384,30.798582 0,1.122376 -2.91149,9.011546 -6.46992,17.531466 -7.53168,18.03291 -11.27372,29.3379 -14.43085,43.59677 -3.81097,17.21181 -4.24574,18.33471 -7.09939,18.33471 -1.4092,0 -13.11204,-3.41018 -26.00634,-7.57816 -12.89426,-4.16799 -27.74941,-8.64327 -33.0114,-9.94509 -9.89312,-2.44755 -36.36994,-6.49807 -52.22842,-7.99 l -9.06336,-0.85272 v 44.29617 l 0.7323,31.62571 16.12389,-0.34394 16.12388,-0.34395 c 0.45717,4.79611 0.1041,-24.65184 2.70664,-36.43606 z m 82.68193,-29.21516 c 6.02053,-21.87208 10.1819,-34.46991 15.77406,-47.75329 7.41214,-17.606455 7.77786,-14.5795 -3.36918,-27.883127 -7.88327,-9.408399 -15.14402,-14.960808 -34.40705,-26.311556 -19.86311,-11.704321 -55.366,-26.742893 -82.08481,-34.770061 -15.95195,-4.792441 -14.28166,-8.1179 -14.28166,28.434618 v 31.576353 l 14.00699,0.817433 c 18.29293,1.067545 19.95496,1.476802 21.21376,5.223453 0.56798,1.690546 1.03273,12.268077 1.03273,23.505587 0,25.12513 -0.0947,25.32126 -12.35917,25.55906 -4.38061,0.085 -11.42531,0.5045 -15.6549,0.93241 -7.37086,0.74568 -6.77794,0.89379 14.28166,3.56782 27.12057,3.44358 48.50186,8.34306 71.40837,16.36304 9.66758,3.3848 18.81336,6.05451 20.32392,5.93263 2.17813,-0.17574 3.02974,-1.25066 4.11528,-5.19437 z M 390.2508,85.89047 c 2.43818,-0.696395 2.47182,-0.984848 2.47182,-21.203457 0,-18.117391 -1.60257,-45.366338 -2.74404,-46.658058 -0.88899,-1.005992 -30.1154,3.887659 -39.7692,6.658906 -10.35086,2.971318 -22.52882,8.468659 -24.39399,11.011878 -0.68562,0.934854 1.35297,4.676289 6.17288,11.329087 8.74129,12.065322 15.37896,23.119583 24.3408,40.53659 l 6.7822,13.180944 12.33385,-7.074934 c 6.78362,-3.89123 13.44616,-7.392656 14.80568,-7.780956 z M 561.93834,-39.444351 c -8.05347,-3.826388 -15.37695,-15.320775 -15.40237,-24.174351 -0.0453,-15.806763 12.16938,-28.984366 25.69041,-27.715482 4.50998,0.423353 7.16213,1.578388 11.24706,4.898867 15.47137,12.575888 16.0851,33.186133 1.31751,44.245233 -3.73357,2.796009 -5.97287,3.471495 -12.34974,3.725178 -4.28407,0.170563 -9.01038,-0.270176 -10.50287,-0.979445 z m 19.94374,-14.838031 c 5.80895,-6.819977 6.64714,-10.835159 3.637,-17.422317 -2.07508,-4.541013 -10.04908,-9.932163 -14.69048,-9.932163 -5.60383,0 -12.13998,4.455497 -14.02485,9.560355 -1.35651,3.673962 -1.41447,5.503825 -0.3355,10.593224 1.72502,8.137071 7.6809,13.412773 15.14215,13.412773 4.53818,0 5.45095,-0.55205 10.27176,-6.211872 z"
       id="path38"
       inkscape:connector-curvature="0"
       sodipodi:nodetypes="ccccsccccccccccccscssssccscsccsccscsscsccsscccscsccscsccccssccsccsccsscsccsccccccsscccccsscscccccssssccsssscsscccccssccscccccccscccsccccsssccsccccccccccccccccccccccsccccccccccccccscccccccccccccccscccccsscsccsssccscccscccsccssccccccsscccccsccccsccccccsccscscccccsccsccscccccsscccscccccscscccsccsccsscccccscssccccccccccscscscscscccscccsccccsccccccccccccsccscc" />
    <path
       style="fill:#ffffff;fill-opacity:1;stroke-width:2"
       d="m 164.33839,1434.2275 c -49.49999,-0.7359 -92.024993,-1.4623 -94.499993,-1.6143 l -4.5,-0.2762 v -53.8819 c 0,-36.7066 0.694403,-54.3112 2.17846,-55.2284 1.198153,-0.7405 37.423153,-5.7488 80.500003,-11.1295 263.42181,-32.9042 444.06055,-56.5173 465.23583,-60.8156 24.09042,-4.8901 24.0857,-4.8838 24.0857,-32.0695 0,-25.9177 -2.38914,-51.0576 -8.0681,-84.897 -5.31266,-31.6567 -8.92582,-42.8861 -15.47674,-48.1005 -4.96732,-3.9538 -7.06484,-4.2434 -23.45516,-3.2375 -21.67808,1.3304 -103.96854,13.1244 -269,38.5535 -166.23329,25.6144 -226.737888,34.4479 -240.999994,35.1857 l -11.999999,0.6208 -1.234069,-39 c -0.678738,-21.45 -1.353738,-141.68813 -1.5,-267.19578 l -0.265931,-228.19575 27.499999,-1.37088 c 68.520704,-3.41577 165.085754,-12.66268 212.446454,-20.34353 111.23444,-18.03973 207.59496,-48.08022 314.52618,-98.05385 41.96265,-19.61097 39.93707,-19.26612 46.58035,-7.93022 7.65794,13.06726 21.95944,50.01681 29.83806,77.08997 7.287,25.04025 14.05666,64.50662 15.98288,93.17869 l 1.22128,18.1787 -43.54762,16.12295 c -121.97141,45.1584 -212.51241,66.43978 -346.71705,81.49476 -63.01552,7.06904 -89.96425,10.79574 -96.31731,13.31954 -3.96574,1.57544 -6.07406,4.36072 -7.6053,10.0473 -2.75391,10.22724 -1.7574,165.27449 1.09207,169.91553 1.1,1.7916 5.36746,6.96084 9.48325,11.4872 l 7.48324,8.22974 177.51675,-33.11146 C 701.8166,907.66802 737.5936,901.73514 742.68836,906.8299 c 3.03012,3.03012 11.11322,40.52665 29.57676,137.2034 25.30978,132.5241 61.93328,340.0115 66.10782,374.5284 l 1.35752,11.2246 -15.69604,1.3328 c -20.1067,1.7073 -380.02639,5.2429 -487.69603,4.7908 -45.1,-0.1894 -122.5,-0.9464 -172,-1.6824 z"
       id="path4483"
       inkscape:connector-curvature="0"
       transform="matrix(0.26458333,0,0,0.26458333,0,-103)" />
    <path
       style="fill:#ffffff;fill-opacity:1;stroke-width:2"
       d="m 953.68572,1436.4209 -28.65268,-1.0839 22.39086,-26.9309 c 35.65744,-42.8876 56.4962,-76.14 76.5183,-122.1005 19.7591,-45.3571 38.9829,-106.603 52.3864,-166.9004 10.5981,-47.6773 11.6901,-61.5911 11.8559,-151.06815 0.1432,-77.26141 -0.15,-84.65933 -4.2417,-106.99999 -7.7832,-42.49622 -16.4952,-68.42568 -37.6307,-112 -27.4286,-56.54858 -96.82958,-162.7204 -122.84846,-187.93742 l -8.18984,-7.93742 -6.4677,3.51962 c -3.55724,1.9358 -25.36772,17.4796 -48.46772,34.54182 -68.98975,50.95744 -96.49121,68.8134 -105.98526,68.8134 -4.27267,0 -6.55753,-6.9511 -10.0934,-30.70662 -6.39155,-42.94122 -16.92073,-78.28884 -38.38603,-128.86624 -11.06305,-26.06718 -12.63476,-31.17388 -10.29573,-33.4521 1.51823,-1.47876 22.73588,-15.28678 47.15032,-30.68447 111.74518,-70.47544 181.58226,-122.22524 251.94348,-186.69204 32.09264,-29.40417 57.25204,-56.18668 93.56234,-99.59852 15.1809,-18.15 27.9397,-33.375 28.353,-33.83333 0.4132,-0.45834 0.7513,47.32938 0.7513,106.19493 v 107.02826 l -27.2283,29.80508 c -36.4832,39.93584 -65.3286,73.5024 -74.2276,86.37645 l -7.3073,10.57142 5.1232,10.446 c 2.8177,5.7453 23.9567,35.63818 46.9754,66.4286 128.0747,171.31574 158.7788,225.1524 183.633,321.98258 14.9226,58.13746 20.0781,108.28627 18.3992,178.97064 -2.1348,89.8758 -16.1799,160.7073 -49.622,250.2508 -21.1657,56.6724 -42.3125,101.7349 -64.4219,137.2785 l -10.2636,16.5 -78.03,-0.4161 c -42.9166,-0.2288 -90.92382,-0.9038 -106.68278,-1.5 z"
       id="path4485"
       inkscape:connector-curvature="0"
       transform="matrix(0.26458333,0,0,0.26458333,0,-103)" />
    <path
       style="fill:#ffffff;fill-opacity:1;stroke-width:2"
       d="m 1246.3384,1436.4332 c -33,-0.6455 -61.0342,-1.8282 -62.2982,-2.6282 -1.5583,-0.9863 2.2353,-9.3442 11.7836,-25.9612 50.9375,-88.6474 94.6973,-230.587 101.2656,-328.4654 2.7948,-41.6481 -2.4751,-130.22557 -10.8892,-183.02908 -9.9723,-62.58108 -35.3635,-123.20438 -89.5039,-213.69632 -16.7583,-28.01038 -33.9041,-53.88824 -122.439,-184.79534 l -29.406,-43.47939 3.5793,-5.5206 c 5.4603,-8.42175 54.7715,-58.08159 83.4862,-84.07641 50.3071,-45.54202 65.9971,-56.33663 97.4216,-67.02552 47.2447,-16.07005 93.6838,-24.57839 149.2039,-27.33639 45.6029,-2.26536 157.83,-2.52834 173.7194,-0.40707 9.3365,1.24645 10.006,1.73092 11.3227,8.19298 2.2141,10.86677 4.5414,134.13031 2.5327,134.14339 -0.9783,0.006 -7.1787,0.91822 -13.7787,2.02633 -6.6,1.10812 -34.5,2.86976 -62,3.91476 -110.1062,4.18405 -187.0137,22.15778 -267,62.39948 -40.4054,20.32826 -54,29.47584 -54,36.3357 0,5.86172 10.6279,21.05662 37.9203,54.21522 42.5585,51.70612 76.0587,101.0407 116.8606,172.09692 26.2054,45.6365 35.1044,57 44.6379,57 3.0126,0 19.6057,-6.75746 36.8734,-15.01658 32.8719,-15.72254 76.8073,-31.679 84.282,-30.60954 3.6485,0.52202 5.2552,3.62248 9.6629,18.64674 5.7254,19.51594 20.5645,84.17406 22.7946,99.32274 1.3154,8.9356 1.1131,9.479 -4.6352,12.45156 -3.3058,1.70952 -20.2724,5.39808 -37.7036,8.1968 -58.5105,9.3944 -87.0591,15.37442 -90.679,18.9944 -4.5048,4.50478 -5.6524,18.15366 -7.0639,84.01387 -2.2092,103.08405 -5.338,126.66845 -34.755,261.97765 -9.9219,45.6376 -17.3306,83.6868 -16.4638,84.5536 0.8669,0.8668 95.9169,1.3269 211.2224,1.0224 l 209.6464,-0.5537 -1.2719,40 c -1.3784,43.3508 -2.0328,48.0176 -7.0252,50.103 -9.8395,4.11 -338.9453,6.0909 -497.3029,2.9932 z"
       id="path4487"
       inkscape:connector-curvature="0"
       transform="matrix(0.26458333,0,0,0.26458333,0,-103)" />
    <path
       style="fill:#ffffff;fill-opacity:1;stroke-width:2"
       d="m 1797.8188,1368.0866 1.0787,-64.4047 -169.2796,1.1167 c -93.1037,0.6141 -174.2295,0.5365 -180.2795,-0.1725 -10.13,-1.1871 -10.9844,-1.6845 -10.8025,-6.2891 0.1087,-2.75 6.1466,-31.55 13.4175,-64 15.9846,-71.3392 27.4459,-133.4502 42.431,-229.9424 6.207,-39.96799 12.0406,-74.6552 12.9635,-77.08272 1.8345,-4.8249 2.8247,-5.06624 37.7444,-9.19906 l 20.7539,-2.45626 -1.094,-31.15976 c -1.5439,-43.9736 -12.369,-92.7949 -31.8535,-143.65994 l -8.2358,-21.4998 -1.6368,-80 c -0.9002,-44 -3.0543,-102.3689 -4.7869,-129.70868 -1.7326,-27.33978 -2.569,-50.28977 -1.8588,-50.99998 1.6774,-1.6774 30.9452,-3.89551 54.326,-4.11719 l 18.3681,-0.17415 0.6319,-87.90204 c 0.4789,-66.61066 1.2331,-88.5027 3.1138,-90.38187 6.7783,-6.77266 126.0976,16.55363 211.5182,41.35067 59.4136,17.24739 184.9228,72.2201 207.0366,90.68152 l 6.4759,5.40637 -4.499,8.81873 c -3.4456,6.75412 -61.511,95.5397 -65.3419,99.91198 -1.5055,1.71828 -32.39,-8.43974 -96.6716,-31.79564 -78.4712,-28.51147 -119.3096,-41.97829 -155.1781,-51.17124 -38.2967,-9.81531 -50.605,-8.94276 -54.6778,3.87619 -1.0843,3.41294 -2.9044,25.55533 -4.0447,49.20533 -2.0859,43.26476 -6.7125,240.15838 -5.6625,240.98238 8.1482,6.39472 23.6014,15.42106 29.2097,17.06154 4.0443,1.18306 30.9784,2.69302 59.8534,3.35548 l 52.5,1.2045 v 66.69806 66.69804 h -61.8369 -61.8369 l -4.0541,6.5597 c -2.2298,3.60782 -5.0229,10.58282 -6.207,15.5 -1.2381,5.1416 -2.9599,51.85485 -4.0523,109.94034 -2.4642,131.0276 -5.8964,252.9704 -7.3928,262.6622 l -1.1832,7.6622 125.7816,-0.6089 c 69.1799,-0.3349 151.1684,0.1552 182.1967,1.0893 l 56.4152,1.6983 1.3885,9.2484 c 1.5779,10.5108 -0.7181,95.7623 -3.0118,111.8288 -2.6527,18.5807 4.2776,17.3407 -100.5759,17.9967 l -92.2294,0.5771 z"
       id="path4489"
       inkscape:connector-curvature="0"
       transform="matrix(0.26458333,0,0,0.26458333,0,-103)" />
    <path
       style="fill:#ffffff;fill-opacity:1;stroke-width:2"
       d="m 1682.6432,1225.538 c -0.7096,-15.5105 -1.2935,-79.6694 -1.2975,-142.5752 l -0.01,-114.37427 6.5,0.88304 c 3.575,0.48568 20,2.25832 36.5,3.93922 40.5556,4.13154 119.7832,15.65444 156.2173,22.72036 37.0424,7.18395 59.4852,13.57925 165.8067,47.24875 54.8089,17.3567 84.155,25.3212 90.5712,24.5808 8.0313,-0.9267 10.8223,-8.4451 24.3728,-65.6545 13.8535,-58.48871 25.9569,-95.73752 52.6292,-161.96914 10.4101,-25.85 20.9427,-53.0361 23.4058,-60.41354 l 4.4784,-13.41356 -5.462,-9.32014 c -13.0712,-22.30436 -62.3119,-82.08302 -87.2744,-105.95184 -20.3205,-19.43028 -40.8983,-33.74359 -96.7712,-67.31134 -56.7557,-34.09809 -62.9165,-38.04337 -62.9491,-40.31182 -0.043,-3.02013 19.3934,-34.00305 34.1781,-54.48102 19.727,-27.3234 35.3357,-44.79674 40.0162,-44.79674 5.8958,0 30.6535,13.06094 50.7185,26.75652 10.639,7.26177 34.5535,28.07655 58.7743,51.15615 40.5333,38.62353 171.3482,171.98507 189.2162,192.89969 l 9.3192,10.90824 -3.3846,6.6397 c -1.8615,3.65184 -12.005,19.2397 -22.5411,34.6397 -55.6049,81.27426 -86.6879,148.8821 -110.3412,240.00004 -5.8702,22.6132 -29.9803,136.906 -29.9803,142.12 0,1.4353 -17.9723,-6.2709 -53.1028,-22.7696 -84.9911,-39.9153 -149.3704,-53.0568 -260.8972,-53.2558 -47.0506,-0.084 -53.7275,0.3029 -59.4804,3.4466 -15.0728,8.2365 -22.8922,42.3195 -25.5357,111.3046 -0.6145,16.0348 -1.6159,36.5531 -2.2253,45.5963 l -1.1081,16.4421 -6.3253,0.9737 c -3.4789,0.5356 -30.2664,1.327 -59.5277,1.7588 l -53.2025,0.7851 z"
       id="path4491"
       inkscape:connector-curvature="0"
       transform="matrix(0.26458333,0,0,0.26458333,0,-103)" />
    <path
       style="fill:#ffffff;fill-opacity:1;stroke-width:2"
       d="m 2244.5132,1434.2211 c -5.5099,-0.9228 -11.6588,-3.4823 -14,-5.8276 -4.1019,-4.1091 -4.172,-5.6051 -4.012,-85.6193 0.1722,-86.1218 1.2455,-102.2653 11.9929,-180.3897 17.6619,-128.3871 47.5662,-227.89494 91.767,-305.35792 23.9948,-42.05155 59.9801,-93.55488 69.476,-99.43626 3.802,-2.35483 0.1574,-5.59252 78.1012,69.38063 25.025,24.07119 45.5,44.53081 45.5,45.46581 0,0.935 -6.6242,11.87006 -14.7204,24.30015 -67.6608,103.87899 -98.3782,172.23229 -125.3736,278.98499 -17.9395,70.9413 -29.4114,136.0404 -37.9961,215.6151 -3.2823,30.4251 -5.0764,40.5985 -7.4948,42.5 -3.6663,2.8828 -76.5286,3.1829 -93.2402,0.3841 z"
       id="path4493"
       inkscape:connector-curvature="0"
       transform="matrix(0.26458333,0,0,0.26458333,0,-103)" />
    <path
       style="fill:#ffffff;fill-opacity:1;stroke-width:2"
       d="m 2379.8384,1430.2747 c -3.9398,-1.5836 -4.4997,-3.2486 -4.4976,-13.3732 0,-14.7165 4.7315,-56.2292 11.2267,-98.5645 16.8369,-109.7401 48.3486,-216.3347 87.7998,-296.9999 18.8463,-38.53456 71.666,-121.00004 77.5015,-121.00004 2.2039,0 24.4996,15.55621 67.4695,47.07498 14.85,10.89258 39.0771,27.97165 53.838,37.95348 14.7608,9.98184 27.6775,19.47978 28.7036,21.10658 2.2424,3.5549 -15.8244,50.7973 -24.8976,65.1043 -5.4226,8.5505 -6.3118,9.1285 -12.2456,7.9596 -18.2487,-3.5947 -60.6788,-29.2368 -100.0103,-60.4399 -29.2973,-23.24258 -31.9688,-24.66342 -37.3004,-19.83841 -9.3804,8.48921 -36.9402,71.15451 -41.9543,95.39551 -1.9273,9.3178 -1.8255,12.5491 0.5763,18.2975 4.7639,11.4016 30.4183,36.5892 51.6926,50.7521 19.6922,13.1097 29.5977,22.4392 29.5977,27.8767 0,7.3849 -6.8395,28.8709 -12.6559,39.7575 -5.6523,10.5796 -7.0738,11.9533 -12.0092,11.6055 -3.0789,-0.217 -20.6917,-8.542 -39.1395,-18.5 -18.4478,-9.958 -35.9518,-18.1055 -38.8978,-18.1055 -7.5822,0 -12.1333,8.5218 -18.1041,33.8993 -9.3635,39.7973 -14.1316,83.7225 -16.3478,150.6007 l -1.3752,41.5 -22.2352,-0.1267 c -12.2294,-0.07 -24.2602,-0.9408 -26.7352,-1.9356 z"
       id="path4495"
       inkscape:connector-curvature="0"
       transform="matrix(0.26458333,0,0,0.26458333,0,-103)" />
    <path
       style="fill:#ffffff;fill-opacity:1;stroke-width:2"
       d="m 2802.1606,1335.6494 v -102.6877 l -36.0903,-43.8123 c -19.8497,-24.0968 -42.4875,-52.1606 -50.3062,-62.3641 l -14.2159,-18.5518 10.5684,-28.4482 c 16.4983,-44.4106 22.1267,-53.4482 33.2857,-53.4482 7.9497,0 39.8903,17.4843 45.5887,24.9554 2.9263,3.8365 12.9721,22.9278 22.3241,42.4249 18.9854,39.5809 24.8518,48.6197 31.5557,48.6197 6.4492,0 20.9806,-9.7262 46.7624,-31.2989 30.6969,-25.6853 34.0345,-27.4858 50.1302,-27.0423 7.1957,0.1982 13.2703,0.5811 13.4991,0.8508 0.2287,0.2697 0.8196,17.2686 1.3129,37.7754 l 0.897,37.2851 -36.0264,21.7149 c -39.4173,23.7588 -55.4173,37.1303 -59.4878,49.7149 -1.932,5.9732 -2.767,33.2091 -3.2959,107.5 l -0.7083,99.5 h -27.8967 -27.8967 z"
       id="path4497"
       inkscape:connector-curvature="0"
       transform="matrix(0.26458333,0,0,0.26458333,0,-103)" />
    <path
       style="fill:#ffffff;fill-opacity:1;stroke-width:2"
       d="m 2143.5958,203.46268 c -25.2292,-9.00077 -41.4716,-35.29485 -41.4156,-67.04581 0.037,-21.08772 12.6997,-39.009218 34.8496,-49.323326 13.0269,-6.065947 25.2327,-6.075704 38.1308,-0.03048 24.4443,11.456811 40.2163,30.880446 42.4211,52.242496 0.9426,9.13287 0.2786,12.57697 -4.1366,21.45538 -7.0805,14.23801 -27.5759,38.30959 -36.0365,42.32441 -8.2365,3.90847 -23.4394,4.07813 -33.8128,0.37733 z"
       id="path4499"
       inkscape:connector-curvature="0"
       transform="matrix(0.26458333,0,0,0.26458333,0,-103)" />
    <path
       style="fill:#ffffff;fill-opacity:1;stroke-width:2"
       d="m 2041.6606,1433.1153 c -3.2004,-0.9798 -3.5,-4.9966 -3.5,-46.9249 v -45.8534 h 76 76 v 46 46 h -20.5 c -11.275,0 -43.9,0.4185 -72.5,0.925 -28.6,0.5064 -53.575,0.4386 -55.5,-0.1508 z"
       id="path4492"
       inkscape:connector-curvature="0"
       transform="matrix(0.26458333,0,0,0.26458333,0,-103)" />
  </g>
</svg>
