<?xml version="1.0" encoding="UTF-8" standalone="no"?>
<!-- Created with Inkscape (http://www.inkscape.org/) -->

<svg
   xmlns:dc="http://purl.org/dc/elements/1.1/"
   xmlns:cc="http://creativecommons.org/ns#"
   xmlns:rdf="http://www.w3.org/1999/02/22-rdf-syntax-ns#"
   xmlns:svg="http://www.w3.org/2000/svg"
   xmlns="http://www.w3.org/2000/svg"
   xmlns:sodipodi="http://sodipodi.sourceforge.net/DTD/sodipodi-0.dtd"
   xmlns:inkscape="http://www.inkscape.org/namespaces/inkscape"
   width="800mm"
   height="400mm"
   viewBox="0 0 800 400"
   version="1.1"
   id="svg25"
   inkscape:version="0.92.1 r15371"
   sodipodi:docname="steezify_logo_vector_white.svg">
  <defs
     id="defs19" />
  <sodipodi:namedview
     id="base"
     pagecolor="#ffffff"
     bordercolor="#666666"
     borderopacity="1.0"
     inkscape:pageopacity="0.0"
     inkscape:pageshadow="2"
     inkscape:zoom="0.5"
     inkscape:cx="1636.6556"
     inkscape:cy="939.05372"
     inkscape:document-units="mm"
     inkscape:current-layer="layer1"
     showgrid="false"
     inkscape:window-width="2736"
     inkscape:window-height="1699"
     inkscape:window-x="-13"
     inkscape:window-y="-13"
     inkscape:window-maximized="1"
     width="800mm" />
  <metadata
     id="metadata22">
    <rdf:RDF>
      <cc:Work
         rdf:about="">
        <dc:format>image/svg+xml</dc:format>
        <dc:type
           rdf:resource="http://purl.org/dc/dcmitype/StillImage" />
        <dc:title></dc:title>
      </cc:Work>
    </rdf:RDF>
  </metadata>
  <g
     inkscape:label="Layer 1"
     inkscape:groupmode="layer"
     id="layer1"
     transform="translate(0,103)">
    <path
       style="fill:#000000;stroke-width:1.15898585"
       d="m 739.05635,286.87439 c -1.78179,-0.31875 -4.15412,-1.51255 -5.27177,-2.65257 -1.91959,-1.95791 -1.9924,-3.65768 -1.31451,-30.68219 l 0.71768,-28.60946 -12.27755,-14.58112 c -11.64186,-13.82614 -12.85984,-14.89611 -23.52273,-20.66429 -6.18479,-3.34573 -14.13113,-8.68506 -17.6585,-11.86522 -3.52733,-3.18016 -6.76239,-5.35607 -7.18899,-4.83544 -0.42663,0.52062 -2.08152,4.55383 -3.67752,8.96268 -3.41607,9.43638 -3.65137,9.01147 8.64087,15.6022 10.12618,5.4293 11.82402,7.73356 10.9723,14.89131 -0.85775,7.20833 -5.65661,20.60863 -8.32484,23.2462 -2.6995,2.66848 -8.98967,1.17049 -17.06498,-4.06404 -3.17817,-2.06017 -6.03096,-3.45495 -6.33947,-3.09953 -1.87265,2.15705 -3.83349,17.84416 -4.44864,35.58978 l -0.71144,20.52414 -5.93933,0.8099 c -3.26661,0.44569 -144.22742,0.86528 -313.24618,0.93293 l -307.306895,0.12317 -2.347991,-2.87894 c -2.203253,-2.70147 -2.347996,-4.07317 -2.347996,-22.2522 0,-16.60302 0.270231,-19.75553 1.889786,-22.04667 1.737194,-2.45757 4.767266,-3.01772 37.525744,-6.93717 69.247352,-8.28526 107.998962,-13.4033 108.945622,-14.38888 1.03376,-1.07627 -1.30738,-24.79078 -2.44668,-24.78362 -0.5935,0.004 -77.42866,12.32302 -125.116962,20.0605 -14.095407,2.287 -17.805053,2.53823 -18.897855,1.27988 -1.058102,-1.21839 -1.424777,-19.04718 -1.653031,-80.37525 -0.254722,-68.440438 -0.08179,-79.053224 1.31446,-80.661496 1.190144,-1.370904 5.473924,-2.059834 16.491478,-2.652105 47.696559,-2.56419 75.76236,-7.666667 105.81013,-19.23688 46.51697,-17.911814 103.17878,-55.4258 133.52955,-88.405703 4.09976,-4.454917 12.04056,-14.681448 17.64622,-22.725677 5.60565,-8.044247 10.55303,-14.625896 10.99415,-14.625896 0.44111,0 1.74531,0.79382 2.8982,1.76403 1.97126,1.658901 2.11524,3.771764 2.41574,35.450876 0.17574,18.527733 0.47177,33.686793 0.65782,33.686793 0.18608,0 3.96251,-1.928808 8.39213,-4.286235 19.70616,-10.487646 38.90218,-13.732915 74.86093,-12.655892 59.09775,1.770044 91.55681,9.382133 133.73313,31.3622754 17.16338,8.9446246 34.13126,20.2146116 43.56551,28.9360176 4.26681,3.944401 22.22178,21.97121 39.89991,40.059554 39.26688,40.178078 60.03852,60.516798 71.25144,69.766448 11.20837,9.24593 33.00698,23.53308 43.40809,28.45042 13.18607,6.23389 15.49383,8.4475 20.60525,19.76446 2.50004,5.53528 4.88539,10.0618 5.30075,10.05898 0.4154,-0.003 4.30836,-3.54386 8.65103,-7.86893 l 7.89577,-7.86374 6.47016,1.01925 c 6.56983,1.03495 10.57355,2.79027 12.00789,5.26463 0.43634,0.75277 0.80082,7.87718 0.80991,15.83204 0.0204,16.77118 1.11962,14.80848 -13.89179,24.77568 l -10.38894,6.89801 -0.53994,28.20035 c -0.4463,23.31094 -0.83199,28.53627 -2.22449,30.13786 -1.74689,2.00925 -16.49044,3.44131 -23.15263,2.24891 z M 230.95192,275.74003 c 1.10377,-1.39107 -23.16065,-136.80167 -24.90957,-139.0109 -1.19405,-1.50833 -9.51056,-0.14152 -75.86904,12.46971 l -55.985759,10.63987 -2.597596,-2.81097 c -2.56052,-2.77081 -2.597595,-3.13681 -2.597595,-25.63687 0,-22.63188 0.02082,-22.83507 2.468075,-23.90678 1.357442,-0.59449 11.440799,-2.00079 22.407463,-3.12515 33.491482,-3.4337 62.569002,-10.169409 90.671362,-21.003632 l 13.49847,-5.204024 -0.38497,-7.463335 c -0.21174,-4.104857 -1.31579,-11.661466 -2.45349,-16.792521 -2.46049,-11.096838 -9.36195,-28.609464 -11.27457,-28.609464 -0.7446,0 -5.40594,2.003982 -10.35852,4.453318 -27.42084,13.561032 -56.79029,22.579185 -88.375673,27.13659 -12.246779,1.767077 -43.94418,4.462763 -52.644031,4.477102 l -3.509603,0.0047 v 70.828296 c 0,38.95554 0.364471,71.06983 0.80991,71.36508 1.106312,0.73326 8.107126,-0.28067 76.303617,-11.05359 32.61257,-5.1517 60.79398,-9.19793 62.62539,-8.99168 2.44285,0.27502 3.72772,1.33568 4.8235,3.98168 1.79876,4.34331 4.44243,23.74374 4.45305,32.67822 0.009,7.30259 1.02505,6.64493 -14.03077,9.07856 -6.27766,1.01469 -133.079422,17.45292 -134.629046,17.45292 -0.195623,0 -0.355655,6.70769 -0.355655,14.90602 v 14.90599 l 28.346786,0.44756 c 48.408985,0.76415 172.687515,-0.10766 173.568245,-1.21769 z m 80.28758,-1.9872 c 7.99769,-12.32049 19.12702,-39.66252 23.91655,-58.75705 9.87456,-39.36729 7.87041,-79.65782 -5.59078,-112.39372 C 323.29676,87.357817 313.05519,71.094001 291.45262,42.07849 277.57441,23.437925 275.24898,19.938221 275.24898,17.692591 c 0,-1.128033 6.31728,-9.1011304 14.03839,-17.7179319 l 14.03842,-15.6669851 v -28.90095 -28.900945 l -10.91671,13.351634 c -20.59453,25.188089 -49.60612,49.060698 -90.86175,74.766913 -5.19692,3.23817 -9.44893,6.134509 -9.44893,6.436379 0,0.301825 1.88738,4.874463 4.19418,10.161372 4.70855,10.791393 8.14341,22.70137 9.24675,32.062009 1.15721,9.817752 1.73796,10.33278 7.83031,6.943792 2.85218,-1.586552 12.05834,-8.149397 20.45816,-14.58408 8.39982,-6.434733 15.71186,-11.699498 16.24898,-11.699498 2.85755,0 22.86106,29.433176 31.87008,46.893664 11.57215,22.428076 14.43899,37.103796 13.51896,69.205246 -0.45451,15.85894 -1.15681,22.73495 -3.32418,32.54584 -7.82283,35.41113 -17.94191,58.78841 -32.929,76.07315 -3.6526,4.21257 -6.6411,7.99088 -6.6411,8.39626 0,0.40526 12.60984,0.73699 28.02186,0.73699 h 28.02187 z m 155.90023,1.98739 c 0.37672,-1.13038 0.7258,-6.86782 0.77604,-12.74987 l 0.0914,-10.69463 -54.80376,0.30511 c -30.14207,0.16783 -54.80377,0.005 -54.80377,-0.36107 0,-0.36622 2.15295,-10.57921 4.78437,-22.69506 7.78369,-35.83872 8.44998,-40.8782 8.82266,-66.72987 0.25427,-17.64652 0.68968,-23.77572 1.73534,-24.43545 1.29703,-0.81832 17.28268,-3.85277 29.26546,-5.55526 3.01643,-0.42876 5.44005,-1.48144 5.78351,-2.51238 0.50777,-1.52412 -6.61722,-32.627724 -7.7812,-33.968539 -0.91776,-1.05709 -15.42824,3.977169 -22.85289,7.928569 -12.24436,6.51645 -11.38294,6.88047 -19.80594,-8.369645 -11.02445,-19.960224 -21.78846,-36.14219 -32.62024,-49.039439 -6.71311,-7.993172 -9.49829,-12.163048 -9.04099,-13.535785 0.83235,-2.498466 17.89498,-11.730904 29.29133,-15.849301 16.35435,-5.910115 37.23738,-9.5766683 54.65303,-9.5957556 5.11403,-0.0047 11.55281,-0.3662323 14.30839,-0.8012448 l 5.01019,-0.7909959 V -12.126286 c 0,-12.611366 -0.39426,-18.696464 -1.25063,-19.30613 -2.18096,-1.552656 -49.47285,-1.069737 -60.84236,0.621279 -14.26342,2.12142 -29.93214,6.779152 -35.54008,10.56479 -9.62899,6.499988 -38.46907,34.560339 -38.39739,37.35922 0.0188,0.732511 7.34168,11.96705 16.27317,24.96571 27.12186,39.472455 40.63552,65.064807 45.19163,85.584627 2.40487,10.83107 4.36464,32.71032 4.36992,48.78661 0.008,23.99982 -12.3796,67.90166 -25.78821,91.39464 -2.1476,3.76274 -4.29333,7.54105 -4.7683,8.39622 -0.68782,1.23846 14.20762,1.55486 73.1956,1.55486 67.86771,0 74.11637,-0.1716 74.74381,-2.05523 z m 100.48607,0.82833 14.30839,-0.0188 v -12.43886 -12.43891 h -19.97777 -19.97773 v 12.36007 12.36008 l 3.50962,0.52604 c 1.93027,0.28913 4.48149,0.33238 5.66935,0.0959 1.18786,-0.23647 8.59854,-0.43769 16.46814,-0.44709 z m 53.61808,-0.32816 c 0.20162,-0.85516 1.1437,-9.11147 2.09385,-18.34734 1.94905,-18.9461 7.29927,-45.27346 13.14477,-64.68221 5.80199,-19.26457 13.25925,-34.66612 28.06165,-57.95605 l 4.81669,-7.57856 -15.71386,-15.43342 c -8.64259,-8.48837 -16.10559,-15.597173 -16.58447,-15.797355 -1.28084,-0.535479 -11.41473,13.759515 -18.12354,25.565315 -14.02794,24.6857 -21.88232,53.71678 -26.72608,98.78394 -1.6153,15.02911 -2.21495,47.56153 -0.9748,52.88859 0.75004,3.22181 2.67668,3.62852 18.53681,3.91291 8.08735,0.14479 11.20214,-0.22332 11.46898,-1.35582 z m 134.55056,-25.86723 c 0,-32.27559 -1.17287,-29.26539 15.43302,-39.60762 l 10.56828,-6.58198 -0.31223,-10.15093 -0.31222,-10.15099 -4.15694,-0.39349 c -3.69785,-0.35026 -5.18312,0.51446 -13.44891,7.82754 -5.83709,5.1643 -10.11345,8.08556 -11.5013,7.85674 -1.58531,-0.26139 -3.78377,-3.87746 -7.78385,-12.80308 -5.20884,-11.62292 -5.91725,-12.61753 -10.79876,-15.16132 -9.2193,-4.80427 -10.07912,-4.35938 -14.68685,7.59939 -2.21973,5.76094 -4.03584,10.94034 -4.03584,11.50971 0,0.56938 5.83134,8.23906 12.95853,17.04363 l 12.95853,16.00839 v 27.21303 27.21299 h 7.55913 7.55913 z m -226.11513,23.37949 c 1.15329,-4.01136 0.92432,-19.50876 -0.30937,-20.92968 -0.62299,-0.71761 -10.75481,-1.06362 -25.26224,-0.86279 l -24.22208,0.3352 -0.30897,12.12793 -0.30896,12.12793 h 24.80349 c 24.76385,0 24.80483,-0.005 25.60821,-2.79873 z m 115.128,-14.30474 c 0.49001,-17.26773 3.65316,-37.26758 6.63786,-41.96932 1.24953,-1.96839 2.13635,-1.68556 11.25596,3.59025 5.44479,3.14984 10.65551,5.727 11.57938,5.727 1.89097,0 5.92252,-9.758 5.92252,-14.33491 0,-2.31709 -1.37336,-3.77685 -6.53433,-6.9454 -7.73156,-4.74672 -15.06324,-12.54493 -15.06324,-16.02164 0,-5.99917 9.78485,-28.62709 12.37681,-28.62197 0.61691,9.7e-4 5.00922,3.36204 9.76069,7.46855 8.04793,6.9554 21.87503,14.91924 25.90343,14.91924 1.1388,0 3.06365,-3.30436 5.47446,-9.39806 2.04496,-5.16896 3.71813,-9.79763 3.71813,-10.28596 0,-0.48833 -2.96736,-2.76695 -6.59415,-5.06359 -3.62679,-2.29669 -12.38509,-8.58315 -19.46294,-13.96992 -7.07781,-5.38676 -13.30039,-9.79414 -13.82787,-9.79414 -0.94636,0 -9.45291,12.61771 -16.01956,23.7617 -9.88057,16.7678 -20.30767,48.05893 -25.44921,76.37137 -3.10638,17.10549 -5.49752,38.56078 -4.50389,40.41267 0.371,0.69171 3.74956,1.25761 7.5077,1.25761 h 6.83292 z m -392.79089,3.25185 c 14.28545,-15.39294 23.78701,-37.25724 31.49056,-72.46382 3.35394,-15.32807 4.72846,-48.37285 2.59903,-62.48337 C 283.58498,111.04688 274.48285,90.381326 260.41542,69.424283 249.62688,53.352003 250.80616,53.876294 242.01346,61.24287 224.95291,75.536272 208.7226,84.810411 185.61913,93.466939 152.26463,105.96439 133.45498,110.03982 83.300736,115.63612 l -5.669358,0.63256 v 16.00289 16.00285 l 4.049542,-0.65734 c 7.419026,-1.20424 122.80048,-22.97696 125.04307,-23.59589 5.49017,-1.51518 6.18959,1.21882 21.51866,84.11632 6.26215,33.86487 11.61805,62.29634 11.90196,63.18098 0.7544,2.35056 3.62748,0.26469 11.87181,-8.61873 z m 125.53053,-29.6845 c 7.57553,-31.41973 17.26182,-89.89696 14.99108,-90.50263 -0.66123,-0.1763 -3.27856,0.10343 -5.81628,0.62193 l -4.61405,0.94262 -0.53405,14.30474 c -0.82862,22.19457 -4.99412,54.74124 -9.73416,76.0568 -2.05333,9.23348 -1.98783,10.01643 0.79849,9.5471 1.96643,-0.33145 2.78467,-2.15983 4.90897,-10.97056 z m 58.34202,8.39626 c 0.6647,-0.9546 1.27357,-21.08896 1.57723,-52.15434 0.43729,-44.73478 0.70552,-50.97023 2.31413,-53.79821 l 1.81955,-3.19873 h 16.17326 16.17327 V 114.22385 96.187447 h -14.72085 c -13.23877,0 -15.10414,-0.272676 -18.52781,-2.710165 l -3.80698,-2.710167 0.70743,-37.170879 c 0.41161,-21.627403 1.1759,-38.179128 1.82775,-39.582046 0.75412,-1.623176 2.26249,-2.411163 4.61531,-2.411163 5.54331,0 27.44388,6.879666 51.9424,16.3168 12.4175,4.783351 22.8653,8.215591 23.2174,7.627222 0.35223,-0.588369 3.58162,-5.516756 7.17675,-10.952037 11.90021,-17.9912195 11.83022,-17.8451498 9.51061,-19.8572177 -3.34982,-2.9057405 -25.96089,-13.7405279 -41.2693,-19.7755093 -16.71377,-6.588984 -56.02269,-15.651517 -67.88903,-15.651517 -1.06986,0 -1.37846,5.356535 -1.37952,23.9448694 l -9.8e-4,23.9448666 h -9.08826 c -4.99857,0 -9.39536,0.354009 -9.77061,0.786718 -0.37508,0.432521 -0.15917,6.589972 0.48002,13.682796 0.63923,7.092823 1.10615,22.253289 1.03754,33.689885 -0.11796,19.662725 0.0204,21.151301 2.54073,27.365544 4.41978,10.896983 8.67495,29.467923 8.77359,38.290923 l 0.0902,8.08527 -7.38966,0.84134 c -4.06429,0.46262 -7.59774,1.08103 -7.85206,1.37396 -0.25427,0.2929 -1.86811,10.26974 -3.58614,22.17065 -3.90283,27.03475 -9.16114,54.50739 -14.79575,77.30199 -0.50127,2.02791 1.15676,2.1768 24.23964,2.1768 18.52485,0 25.05093,-0.39256 25.86036,-1.55486 z m 146.4312,-2.22297 c 0.3608,-2.07784 0.97616,-9.02521 1.36752,-15.43855 l 0.7116,-11.66071 -5.53046,-3.22811 c -19.59709,-11.43886 -43.60788,-17.68902 -70.25344,-18.28735 -9.54103,-0.21439 -11.43007,0.0696 -12.58671,1.89166 -2.14797,3.38372 -3.93103,21.29643 -3.54109,35.57422 l 0.35672,13.06082 9.7189,0.69786 c 5.3454,0.3841 25.32987,0.80364 44.40996,0.93293 l 34.69107,0.23506 z m -101.76789,-6.17329 c -0.32651,-10.33838 1.61037,-32.20738 3.63582,-41.04834 2.60301,-11.36209 3.23701,-11.63213 25.39427,-10.81467 27.38139,1.01022 44.43106,5.07215 64.56883,15.38307 6.1132,3.13009 11.38493,5.37996 11.71503,4.99976 0.33019,-0.38034 1.94999,-8.14621 3.59974,-17.25768 6.37213,-35.19276 16.04629,-59.4543 33.88556,-84.980223 3.34685,-4.788945 6.08794,-9.358433 6.09124,-10.154412 0.008,-1.69252 -54.13894,-57.610825 -62.08696,-64.119181 -6.72023,-5.502982 -16.0069,-10.93281 -18.69844,-10.93281 -1.81889,0 -12.16036,13.784673 -17.86453,23.812526 l -1.855,3.261066 4.63066,3.071415 c 2.54685,1.689275 10.59172,6.597399 17.87751,10.906952 7.46714,4.416784 15.94226,10.552422 19.42457,14.062516 8.79613,8.866346 24.02214,28.398328 24.02214,30.815701 0,1.12299 -2.8619,9.01655 -6.35972,17.5412 -7.40338,18.04294 -11.08169,29.3542 -14.18504,43.621 -3.74606,17.22137 -4.17342,18.3449 -6.97847,18.3449 -1.38519,0 -12.88869,-3.41208 -25.56336,-7.58238 -12.67463,-4.1703 -27.27675,-8.64807 -32.4491,-9.95061 -9.72461,-2.44892 -35.75044,-6.50168 -51.3388,-7.99445 l -8.90898,-0.85319 v 44.32079 44.32077 l 15.84924,-0.34413 15.84924,-0.34413 z m 84.90939,-70.27974 c 5.91799,-21.88424 10.00847,-34.48907 15.50538,-47.77982 7.28588,-17.616243 7.64537,-14.58761 -3.31179,-27.898626 -7.749,-9.413627 -14.88607,-14.969121 -33.82099,-26.326177 C 524.3095,49.020072 489.41134,33.973144 463.14765,25.941515 447.46741,21.14641 449.10925,17.819103 449.10925,54.391933 v 31.5939 l 13.76841,0.817888 c 17.98134,1.068138 19.61505,1.477623 20.85242,5.226355 0.55829,1.691486 1.01513,12.274894 1.01513,23.518644 0,25.13909 -0.0931,25.33533 -12.14866,25.57326 -4.30598,0.0851 -11.23069,0.50479 -15.38824,0.93293 -7.24531,0.7461 -6.66249,0.89428 14.0384,3.5698 26.65861,3.4455 47.67571,8.3477 70.19205,16.37214 9.50291,3.38669 18.4929,6.05787 19.97772,5.93592 2.14104,-0.17583 2.97814,-1.25134 4.04519,-5.19725 z M 395.92529,85.931956 c 2.39666,-0.696781 2.42971,-0.985395 2.42971,-21.215239 0,-18.127459 -1.57527,-45.391548 -2.69729,-46.683986 -0.87383,-1.006552 -29.60243,3.889819 -39.09178,6.662607 -10.17455,2.972969 -22.14508,8.473365 -23.97847,11.017996 -0.67395,0.935374 1.32992,4.678888 6.06773,11.335384 8.59239,12.072026 15.11701,23.132429 23.92619,40.559115 l 6.66668,13.188257 12.12375,-7.078853 c 6.66809,-3.893393 13.21714,-7.396765 14.55348,-7.785281 z M 564.6884,-39.472512 c -7.91629,-3.828514 -15.11504,-15.329289 -15.14001,-24.187785 -0.0444,-15.815546 11.96209,-29.00049 25.2528,-27.730901 4.43318,0.423588 7.04014,1.579265 11.05549,4.901589 15.20785,12.582894 15.81113,33.204593 1.29508,44.269838 -3.66997,2.797563 -5.87113,3.473424 -12.13938,3.727248 -4.2111,0.170658 -8.85691,-0.270325 -10.32398,-0.979989 z m 19.60403,-14.846276 c 5.71,-6.823768 6.53392,-10.841181 3.57505,-17.431998 -2.03973,-4.543537 -9.87791,-9.937682 -14.44025,-9.937682 -5.50838,0 -11.9332,4.457973 -13.78596,9.565666 -1.3334,3.676004 -1.39038,5.506884 -0.32978,10.59911 1.69563,8.141593 7.55007,13.420228 14.88423,13.420228 4.46087,0 5.3581,-0.552358 10.0968,-6.215324 z"
       id="path38"
       inkscape:connector-curvature="0" />
    <path
       style="fill:#ffffff;stroke-width:0.40976331"
       d="m 69.290174,276.75358 c -16.273992,-0.14673 -31.951422,-0.29515 -34.838741,-0.32985 l -5.249671,-0.063 0.0041,-13.08349 c 0.0023,-7.19592 0.109504,-13.81717 0.238192,-14.7139 0.218357,-1.52138 0.33933,-1.64622 1.809321,-1.86709 0.866426,-0.13018 12.570995,-1.63066 26.010158,-3.33441 56.606427,-7.17635 105.599387,-13.65826 112.836427,-14.92861 8.05839,-1.41451 8.00149,-1.3555 8.00149,-8.29909 0,-7.77713 -1.63776,-21.65893 -3.50227,-29.68552 -0.94379,-4.06303 -2.84098,-6.8395 -4.74265,-6.94078 -4.20122,-0.22375 -21.52395,2.19747 -69.83203,9.76045 -55.541951,8.69552 -64.931988,10.08876 -67.994519,10.08876 h -1.987844 l -0.223294,-2.08897 c -0.12284,-1.14895 -0.334421,-33.0111 -0.470178,-70.80481 -0.240926,-67.068445 -0.229621,-68.716024 0.471196,-68.725469 12.244066,-0.164922 48.01836,-3.411612 60.845244,-5.522022 29.677155,-4.882784 53.927985,-12.504467 81.753105,-25.693771 4.59467,-2.177911 9.14026,-4.202094 10.1013,-4.498164 1.67036,-0.514611 1.77956,-0.490328 2.47872,0.55113 2.16575,3.226079 6.46068,14.399126 8.89949,23.15155 1.54896,5.558979 3.12432,14.819047 3.46658,20.376793 0.12661,2.055973 0.31546,4.663143 0.41962,5.793686 l 0.18942,2.055551 -10.9859,4.187704 c -32.20239,12.275179 -54.70876,17.584387 -93.453464,22.045452 -13.831727,1.59259 -21.050751,2.65299 -22.559569,3.31376 -1.860584,0.81484 -1.875273,0.99721 -1.875273,23.29365 0,11.48928 0.140973,21.65835 0.31329,22.59791 0.393695,2.14684 3.762035,6.42765 5.057574,6.42765 0.4782,0 10.804672,-1.88783 22.947721,-4.19518 87.661421,-16.65691 101.297261,-19.11323 106.104051,-19.11323 1.64565,0 2.12067,0.16934 2.44734,0.8724 1.58285,3.40682 17.08792,87.65448 22.8762,124.29921 2.23333,14.1389 2.19288,13.63187 1.11272,13.94416 -2.99482,0.8658 -107.9819,1.60258 -160.667979,1.12754 z"
       id="path40"
       inkscape:connector-curvature="0" />
    <path
       style="fill:#ffffff;stroke-width:0.40976331"
       d="m 259.81478,277.35052 c -3.45973,-0.0732 -6.42019,-0.28249 -6.57881,-0.46524 -0.15864,-0.18274 2.38922,-3.5914 5.66191,-7.57486 10.77907,-13.12005 17.24685,-24.53519 23.34675,-41.20528 5.08196,-13.88822 10.64599,-35.61141 12.08357,-47.17699 1.53246,-12.32883 1.76863,-41.27939 0.42101,-51.60978 -2.51083,-19.24707 -9.38163,-35.384262 -26.07584,-61.243406 -8.09266,-12.535416 -16.30162,-23.506433 -18.0731,-24.154077 -0.88355,-0.323027 -2.15866,0.545136 -16.18404,11.018618 -17.8256,13.311316 -23.28115,16.922926 -25.56305,16.922926 -1.48633,0 -2.10633,-1.6287 -3.06619,-8.054854 -1.90593,-12.759867 -4.57082,-21.6757 -10.85968,-36.332955 l -2.72315,-6.34673 1.81851,-1.303773 c 1.00019,-0.717077 5.83034,-3.861404 10.7337,-6.987397 23.60271,-15.0472146 40.25935,-27.127305 55.62188,-40.339348 13.5125,-11.620992 23.32311,-21.692361 34.84008,-35.766141 l 7.92089,-9.679326 0.0983,28.430447 0.0983,28.430443 -7.92501,8.8731694 c -14.21127,15.911443 -20.33339,23.4941156 -20.33339,25.1842846 0,1.919781 2.38424,5.515913 14.88299,22.447833 26.5436,35.958332 35.15399,50.107845 41.94455,68.927686 8.46651,23.46466 11.21178,52.48351 7.66643,81.03769 -0.93162,7.50337 -3.01747,18.4792 -4.79672,25.24063 -5.24253,19.92245 -15.04325,43.89675 -23.68685,57.94224 l -2.53158,4.1137 -21.2255,-0.0983 c -11.674,-0.0541 -24.05615,-0.15811 -27.51587,-0.23126 z"
       id="path42"
       inkscape:connector-curvature="0" />
    <path
       style="fill:#ffffff;stroke-width:0.40976331"
       d="m 334.82814,277.22381 c -7.34953,-0.16619 -13.81854,-0.44498 -14.37556,-0.61954 l -1.01276,-0.31744 3.74176,-6.67481 c 2.05798,-3.67115 4.9516,-9.3442 6.43026,-12.60679 9.88175,-21.80335 17.874,-50.97335 19.94051,-72.7787 0.84898,-8.95829 -0.11792,-29.3838 -2.12875,-44.96892 -1.67982,-13.01936 -3.51543,-19.6619 -8.96258,-32.43256 -7.41658,-17.387927 -16.81308,-33.359772 -38.51414,-65.464982 -5.74553,-8.50012 -11.65347,-17.396127 -13.12875,-19.768918 -2.52071,-4.054233 -2.65177,-4.379945 -2.17514,-5.405795 2.03918,-4.388963 29.88665,-31.022046 37.84816,-36.197666 6.95247,-4.519672 25.88936,-9.745986 40.01709,-11.044146 12.81086,-1.177166 55.14424,-1.294116 56.13309,-0.155096 0.72143,0.831014 1.12296,9.033719 1.12945,23.0732454 l 0.008,14.3323383 -3.7225,0.5373601 c -2.04737,0.2955715 -8.96261,0.7149005 -15.36723,0.9318849 -13.07391,0.4429106 -19.86618,1.1431711 -30.15542,3.1087903 -12.00927,2.294217 -20.47249,4.739962 -29.68975,8.579886 -9.4965,3.956249 -21.84566,10.793275 -23.78092,13.16613 -0.79195,0.971029 -0.79776,1.055549 -0.17627,2.564101 0.75374,1.829677 3.81414,6.001716 9.55963,13.032054 10.94371,13.391014 19.71546,26.57759 30.73166,46.198919 5.9619,10.618974 7.39689,12.765354 9.30263,13.914324 1.64163,0.98978 3.48224,0.47689 9.7771,-2.72446 6.95381,-3.53649 11.86381,-5.595495 17.91044,-7.5108 6.99272,-2.214957 6.63522,-2.334917 8.03425,2.69595 1.61025,5.79022 4.74013,19.36796 5.71914,24.8099 0.62442,3.47116 0.70878,4.65125 0.36651,5.12643 -0.69763,0.96826 -3.84454,1.8158 -10.46237,2.81775 -7.04593,1.06676 -20.80731,3.67667 -23.0439,4.37039 -1.40837,0.43684 -1.55359,0.62885 -1.93091,2.55351 -0.22449,1.14463 -0.58104,8.51295 -0.79258,16.37404 -0.50492,18.76575 -1.02403,29.08313 -1.748,34.74272 -0.89289,6.98014 -2.74479,16.57769 -7.65879,39.69254 -2.45567,11.551 -4.33684,21.14923 -4.18044,21.32938 0.15631,0.18015 24.86568,0.27249 54.90947,0.20521 l 54.62507,-0.12238 -0.26937,10.01744 c -0.14815,5.50957 -0.39672,10.71007 -0.55242,11.55665 -0.48223,2.62249 -0.90718,2.7058 -15.86696,3.11079 -15.67941,0.42448 -97.0628,0.3904 -116.4872,-0.0488 z"
       id="path44"
       inkscape:connector-curvature="0" />
    <path
       style="fill:#ffffff;stroke-width:0.40976331"
       d="m 393.16633,242.55972 c -3.61178,-0.15515 -6.74195,-0.48372 -6.95594,-0.7302 -0.26407,-0.30432 -0.0816,-1.71568 0.56875,-4.39781 4.90204,-20.21577 9.71792,-45.66474 13.89656,-73.4351 1.27385,-8.46579 2.59191,-17.01126 2.92908,-18.98993 l 0.61299,-3.5976 2.53012,-0.47577 c 1.3916,-0.26167 4.76368,-0.72564 7.4935,-1.03102 l 4.9633,-0.55525 0.12244,-5.04657 c 0.14978,-6.16063 -0.38651,-11.0952 -2.06104,-18.96484 -1.68012,-7.89634 -3.64373,-14.82993 -5.95986,-21.044336 -2.83545,-7.607815 -2.97018,-8.601667 -2.98079,-21.98906 -0.0122,-14.466641 -0.59099,-33.019831 -1.33924,-42.878673 -0.74894,-9.867586 -0.73906,-11.040036 0.0963,-11.440979 0.36732,-0.176346 4.646,-0.421661 9.5078,-0.545075 l 8.83971,-0.224394 0.1759,-22.4805446 c 0.10041,-12.8580584 0.33591,-23.0452724 0.54949,-23.7998894 l 0.37344,-1.319344 2.82827,0.118426 c 11.78549,0.493629 48.38532,9.067441 63.91535,14.972695 14.93954,5.6807184 39.85363,17.6611452 42.95188,20.6542783 l 0.95448,0.9220968 -1.05415,2.3359508 c -0.57975,1.2847747 -4.62342,7.7782371 -8.98585,14.4299321 -7.83185,11.941622 -7.94842,12.092891 -9.25432,12.007807 -1.85202,-0.120636 -8.83498,-2.485913 -23.27572,-7.883905 -19.94548,-7.455671 -32.50309,-11.66202 -42.50908,-14.238984 -7.78606,-2.005251 -11.93977,-1.6615 -12.83887,1.062507 -0.77987,2.362677 -1.61652,24.178838 -2.194,57.208608 -0.1649,9.433307 -0.29999,17.73506 -0.29999,18.448343 0,1.147525 0.34325,1.536563 2.98066,3.378029 1.63935,1.144639 3.78692,2.308994 4.77242,2.587448 1.08676,0.307089 7.16242,0.598994 15.44093,0.741881 L 473.61,96.593984 v 17.759226 17.75921 h -16.13706 -16.13706 l -1.22999,2.3687 c -0.82926,1.59701 -1.35564,3.35216 -1.61571,5.38732 -0.37835,2.96229 -0.72694,18.09526 -1.54768,67.22667 -0.4183,25.04122 -0.76547,33.39913 -1.41866,34.15153 -0.2004,0.23073 -1.46298,0.5931 -2.80585,0.80519 -3.21674,0.50804 -31.1863,0.86717 -39.55204,0.50785 z"
       id="path46"
       inkscape:connector-curvature="0" />
    <path
       style="fill:#ffffff;stroke-width:0.40976331"
       d="m 449.17553,197.42741 v -44.18345 l 1.04995,0.19633 c 0.57748,0.10798 3.45525,0.4092 6.39506,0.66939 11.83569,1.04754 34.59287,4.36502 46.76981,6.81799 6.50228,1.30984 18.11913,4.68686 36.22707,10.53122 17.31999,5.59003 26.06943,8.14994 27.85542,8.14994 2.62215,0 3.1842,-1.38774 6.58415,-16.25659 3.83467,-16.77008 6.67431,-25.76272 13.61438,-43.11386 4.79261,-11.98225 7.00001,-17.96264 7.23384,-19.59843 0.15999,-1.119319 -0.14571,-1.864045 -1.80522,-4.397798 -3.56705,-5.446072 -8.43978,-11.680605 -15.45065,-19.768744 -9.2661,-10.689883 -13.25651,-13.796012 -33.02519,-25.706708 -7.49015,-4.512843 -14.58494,-8.955203 -15.2354,-9.539585 -0.37876,-0.340094 7.00842,-12.197599 10.66881,-17.125426 2.562,-3.449072 6.83178,-8.491672 7.82508,-9.241352 0.83465,-0.629953 1.09048,-0.624184 2.93226,0.06605 2.81373,1.054527 9.38291,4.966448 13.47164,8.022362 3.83287,2.864689 9.29081,8.007807 20.61689,19.427804 15.67888,15.808833 37.50602,38.6768 42.29039,44.306994 l 2.20198,2.591241 -1.83338,3.057964 c -1.00836,1.681876 -3.88915,6.125782 -6.40172,9.875338 -11.89993,17.75841 -19.33209,33.50513 -25.14273,53.27051 -2.67056,9.08406 -3.96152,14.59816 -6.57608,28.08824 -2.35168,12.13377 -3.4177,17.10659 -3.74895,17.48815 -0.38243,0.44027 -4.18865,-1.13638 -11.62093,-4.81359 -8.33223,-4.12245 -19.795,-8.62105 -26.02073,-10.21187 -13.30872,-3.40074 -27.61709,-5.02747 -45.8063,-5.20774 -14.29973,-0.14175 -15.69003,0.61879 -17.88154,9.78156 -2.17079,9.07607 -3.50886,22.5874 -3.77501,38.11884 l -0.20488,11.95185 -2.71848,0.23587 c -1.49518,0.12972 -8.517,0.34052 -15.60403,0.4684 l -12.88559,0.23252 z"
       id="path48"
       inkscape:connector-curvature="0" />
    <path
       style="fill:#ffffff;stroke-width:0.40976331"
       d="m 543.5742,276.51538 -1.24084,-0.21039 v -12.28601 -12.286 h 19.66241 19.66243 v 12.31387 12.31388 h -11.01067 c -6.05586,0 -14.34557,0.082 -18.42156,0.18255 -4.07604,0.10037 -7.96931,0.0878 -8.65177,-0.0277 z"
       id="path50"
       inkscape:connector-curvature="0" />
    <path
       style="fill:#ffffff;stroke-width:0.40976331"
       d="m 479.56927,270.34326 c 0.0935,-3.34209 0.26773,-8.66865 0.38691,-11.83678 l 0.21673,-5.76024 5.75158,-0.28677 c 7.44698,-0.37126 36.33107,-0.37173 40.14235,-6.5e-4 2.43334,0.23691 3.01744,0.4448 3.39831,1.2094 0.31876,0.63967 0.4599,3.76017 0.4599,10.15869 0,9.99048 -0.14366,10.82514 -2.02765,11.77324 -0.73894,0.37192 -7.679,0.55917 -24.76251,0.66818 l -23.73578,0.15147 z"
       id="path52"
       inkscape:connector-curvature="0" />
    <path
       style="fill:#ffffff;stroke-width:0.40976331"
       d="m 596.70083,276.8012 c -5.63588,-0.70488 -5.65388,-0.75219 -5.82587,-15.32031 -0.52426,-44.40014 6.72672,-90.05168 19.17809,-120.74379 5.22689,-12.88399 15.75036,-30.88468 23.86341,-40.819048 l 2.81594,-3.448061 1.38381,1.196644 c 1.73685,1.501934 13.10085,12.485875 23.2461,22.468655 l 7.73589,7.61201 -2.18258,3.39197 c -21.93869,34.09534 -29.68182,52.70638 -37.89202,91.07555 -3.08963,14.43884 -4.6511,24.7915 -7.12559,47.24221 -0.36815,3.33845 -0.88208,6.40593 -1.14256,6.81662 -0.42381,0.66826 -1.56991,0.75302 -10.90867,0.80665 -5.73934,0.0329 -11.65504,-0.0927 -13.14595,-0.27911 z"
       id="path54"
       inkscape:connector-curvature="0" />
    <path
       style="fill:#ffffff;stroke-width:0.40976331"
       d="m 633.58224,276.11907 c -0.31509,-0.0767 -1.19807,-0.2566 -1.96235,-0.39961 -0.98763,-0.18477 -1.45099,-0.53004 -1.60156,-1.19336 -0.49136,-2.16432 1.06995,-17.16484 3.21919,-30.92912 4.98644,-31.93398 15.60741,-65.44791 26.93125,-84.97995 3.98193,-6.86828 11.3425,-18.18334 13.84478,-21.28289 l 1.90774,-2.3631 2.0241,1.27041 c 1.11324,0.69873 6.06173,4.27237 10.99663,7.94142 9.83603,7.313 15.80634,11.59237 21.42218,15.35487 2.01757,1.35176 4.0549,2.8183 4.52736,3.25898 l 0.85907,0.80126 -1.61523,4.37723 c -3.3953,9.20122 -6.36907,15.15186 -7.57203,15.15186 -0.19795,0 -1.53759,-0.417 -2.97712,-0.92665 -5.78746,-2.04898 -15.94291,-8.38284 -23.23421,-14.49092 -5.69285,-4.76901 -8.91832,-7.08772 -9.63751,-6.92817 -2.24225,0.4974 -10.14647,17.82289 -11.84059,25.95368 -0.63311,3.03862 -0.63193,3.05984 0.27223,5.02272 1.81979,3.95137 7.42698,9.24286 15.84757,14.95531 2.62003,1.7774 4.03205,3.03453 4.53508,4.03763 0.69813,1.3921 0.70307,1.58692 0.11143,4.39782 -0.78715,3.73837 -3.44506,10.00112 -4.6212,10.8888 -0.84205,0.63553 -1.1155,0.57757 -4.18894,-0.8879 -1.80843,-0.86231 -5.47404,-2.82132 -8.14583,-4.35335 -9.36744,-5.37147 -10.37332,-5.59405 -11.79639,-2.61033 -3.34897,7.02173 -5.86288,25.71269 -6.44926,47.95006 l -0.26978,10.22492 -5.0069,-0.051 c -2.75378,-0.0282 -5.26458,-0.11382 -5.57955,-0.19064 z"
       id="path56"
       inkscape:connector-curvature="0" />
    <path
       style="fill:#ffffff;stroke-width:0.40976331"
       d="m 740.86642,250.48719 v -27.19286 l -7.10409,-8.75926 c -7.52309,-9.27587 -17.40333,-21.90818 -18.33981,-23.44821 -0.51262,-0.84308 -0.37712,-1.42766 1.61673,-6.96877 4.98726,-13.86098 6.47246,-16.07959 10.28679,-15.3666 1.97525,0.3692 8.23456,3.66085 9.81506,5.16148 1.6118,1.53035 3.6166,5.1841 7.58365,13.82126 3.37061,7.33848 5.67021,11.09312 7.03602,11.48799 1.49845,0.43317 4.96064,-1.81417 11.67002,-7.57519 6.20471,-5.32767 8.97515,-7.33353 10.8206,-7.83445 0.61784,-0.1677 2.36311,-0.17108 3.87834,-0.008 l 2.755,0.29737 0.21387,4.89964 c 0.11795,2.69482 0.29671,7.17621 0.39794,9.95868 l 0.18366,5.05902 -8.4759,5.24269 c -10.35483,6.40489 -12.79743,8.14578 -14.5316,10.35682 -2.69753,3.43935 -2.68949,3.34766 -2.82732,32.22362 l -0.12326,25.83715 h -7.42791 -7.42791 z"
       id="path58"
       inkscape:connector-curvature="0" />
    <path
       style="fill:#ffffff;stroke-width:0.40976331"
       d="m 570.98523,-48.65081 c -4.13351,-0.999955 -7.99225,-4.322585 -10.02929,-8.635851 -1.13799,-2.409733 -2.19091,-6.928715 -2.19977,-9.441407 -0.0245,-6.461734 5.41001,-12.832921 12.31803,-14.445621 2.72644,-0.636497 5.15978,-0.117627 8.43264,1.798111 5.03852,2.94927 7.7039,5.886288 9.02061,9.93992 1.09357,3.366756 0.98982,5.630241 -0.40529,8.846301 -1.30928,3.018013 -6.95945,10.037848 -9.06966,11.268272 -1.52683,0.890236 -5.71837,1.238495 -8.06723,0.670275 z"
       id="path60"
       inkscape:connector-curvature="0" />
  </g>
</svg>
